<svg width="503" height="89" viewBox="0 0 503 89" fill="none" xmlns="http://www.w3.org/2000/svg">
<path d="M191.104 16.2461C191.104 25.8164 179.859 28.7559 171.041 30.9092C166.29 32.0371 162.496 33.165 161.129 34.8398H190.353V47.9648H132.828V40.2061C132.828 29.7129 148.312 25.8164 160.138 23.0137C167.35 21.2363 173.126 19.835 173.126 17.4082C173.126 15.46 170.187 14.0244 163.795 14.0244C157.13 14.0928 151.422 15.084 151.524 19.3564H133.546C133.546 3.87305 145.646 0.899414 163.043 0.899414C180.714 0.899414 191.104 5.03516 191.104 16.2461ZM232.838 26.6709V23.3213C232.838 19.5957 231.437 17.374 229.352 16.041C227.198 14.7764 224.464 14.3662 221.627 14.3662C216.09 14.3662 210.416 15.9043 210.416 23.3213V26.6709C210.416 30.3965 211.783 32.6865 213.937 33.9512C216.09 35.2158 218.858 35.6602 221.627 35.6602C227.232 35.6602 232.838 34.1221 232.838 26.6709ZM233.009 2.02734C242.579 4.1123 250.782 9.75195 250.782 22.1934V27.7988C250.782 36.4463 246.886 41.8125 241.246 44.957C238.717 46.3242 235.982 47.3154 233.009 47.9648C229.283 48.7852 225.353 49.0928 221.627 49.0928C217.901 49.0928 213.971 48.7852 210.279 47.9648C200.709 45.8799 192.506 40.2744 192.506 27.7988V22.1934C192.506 13.5459 196.402 8.17969 202.042 5.06934C204.537 3.66797 207.306 2.67676 210.279 2.02734C213.971 1.20703 217.901 0.899414 221.627 0.899414C225.353 0.899414 229.283 1.20703 233.009 2.02734ZM310.46 16.2461C310.46 25.8164 299.215 28.7559 290.396 30.9092C285.646 32.0371 281.852 33.165 280.484 34.8398H309.708V47.9648H252.184V40.2061C252.184 29.7129 267.667 25.8164 279.493 23.0137C286.705 21.2363 292.481 19.835 292.481 17.4082C292.481 15.46 289.542 14.0244 283.15 14.0244C276.485 14.0928 270.777 15.084 270.88 19.3564H252.901C252.901 3.87305 265.001 0.899414 282.398 0.899414C300.069 0.899414 310.46 5.03516 310.46 16.2461ZM331.617 18.6729H336.231C354.552 18.6729 370.138 19.9033 370.138 33.917C370.138 38.7021 367.643 42.4277 362.687 45.0938C357.73 47.7598 350.758 49.0928 341.734 49.0928C323.927 49.0928 311.861 46.0166 311.861 30.7041H329.806C329.737 35.5918 335.445 35.3867 342.452 35.4893C349.186 35.4893 352.159 34.3955 352.159 31.9688C352.159 29.0293 350.348 26.7734 336.231 26.7734H311.861V26.6709L317.467 2.02734H366.754V14.3662H332.574L331.617 18.6729ZM26.4414 75.1865V61.7295H36.6953V75.8311C36.7344 85.7529 28.6094 88.6045 18.7656 88.624C8.92188 88.6045 0.796875 85.7529 0.835938 75.8311V61.7295H11.0703V75.1865C11.0312 79.5029 14.5664 80.2451 18.7656 80.3037C22.9453 80.2451 26.5 79.5029 26.4414 75.1865ZM66.9102 75.6357V61.7295H77.1641V87.9795H65.6406L51.5391 71.9443V87.9795H41.3047V61.7295H55.3867L66.9102 75.6357ZM83.1406 88.0186V61.7686H115.152V70.0889H93.375V73.292H112.594V80.9678H93.375V88.0186H83.1406ZM134.898 61.085C144.781 61.085 152.809 63.9756 152.809 73.8975V75.8115C152.848 85.7334 144.762 88.6045 134.898 88.624C125.016 88.6045 116.93 85.7334 116.969 75.8115V73.8975C116.93 63.9561 125.016 61.1045 134.898 61.085ZM142.574 75.167V74.5225C142.633 70.2451 139.078 69.4639 134.898 69.4053C130.699 69.4639 127.145 70.2451 127.203 74.5225V75.167C127.145 79.4639 130.699 80.2451 134.898 80.3037C139.078 80.2451 142.633 79.4639 142.574 75.167ZM155.875 61.7295H166.109V79.6592H186.598V87.9795H155.875V61.7295ZM215.699 74.8936C215.699 72.2373 214.195 70.0889 211.539 70.0889H200.328V79.6982H211.539C214.195 79.6982 215.699 77.5303 215.699 74.8936ZM190.094 61.7686H213.453C220.66 61.6709 226.012 67.7256 225.953 74.8936C226.012 82.0225 220.66 88.1162 213.453 88.0186H190.094V61.7686ZM264.195 61.085C274.078 61.085 282.105 63.9756 282.105 73.8975V75.8115C282.145 85.7334 274.059 88.6045 264.195 88.624C254.312 88.6045 246.227 85.7334 246.266 75.8115V73.8975C246.227 63.9561 254.312 61.1045 264.195 61.085ZM271.871 75.167V74.5225C271.93 70.2451 268.375 69.4639 264.195 69.4053C259.996 69.4639 256.441 70.2451 256.5 74.5225V75.167C256.441 79.4639 259.996 80.2451 264.195 80.3037C268.375 80.2451 271.93 79.4639 271.871 75.167ZM310.777 74.8936C310.777 72.2373 309.273 70.0889 306.617 70.0889H295.406V79.6982H306.617C309.273 79.6982 310.777 77.5303 310.777 74.8936ZM285.172 61.7686H308.531C315.738 61.6709 321.09 67.7256 321.031 74.8936C321.09 82.0225 315.738 88.1162 308.531 88.0186H285.172V61.7686ZM329.566 61.7686L337.242 71.1826L344.938 61.7686H357.086L342.359 79.0537V88.0186H332.125V79.0537L317.398 61.7686H329.566ZM365.777 70.3818C365.777 71.5342 368.961 71.6904 373.082 71.8857C380.406 72.2568 390.699 72.7646 390.68 79.3467C390.68 86.8467 382.086 88.624 372.867 88.624C363.668 88.6045 356.031 87.4912 355.055 79.3467H365.777C366.949 81.3779 369.664 81.9053 372.867 81.9053C376.051 81.9053 379.957 81.3779 379.957 79.3467C379.957 78.1943 376.773 78.0186 372.652 77.8232C365.328 77.4521 355.035 76.9443 355.055 70.3818C355.055 62.8818 363.648 61.085 372.867 61.085C382.066 61.1436 389.703 62.1787 390.68 70.3818H379.957C378.785 68.3115 376.07 67.8232 372.867 67.8232C369.684 67.8232 365.777 68.292 365.777 70.3818ZM403.316 70.3818C403.316 71.5342 406.5 71.6904 410.621 71.8857C417.945 72.2568 428.238 72.7646 428.219 79.3467C428.219 86.8467 419.625 88.624 410.406 88.624C401.207 88.6045 393.57 87.4912 392.594 79.3467H403.316C404.488 81.3779 407.203 81.9053 410.406 81.9053C413.59 81.9053 417.496 81.3779 417.496 79.3467C417.496 78.1943 414.312 78.0186 410.191 77.8232C402.867 77.4521 392.574 76.9443 392.594 70.3818C392.594 62.8818 401.188 61.085 410.406 61.085C419.605 61.1436 427.242 62.1787 428.219 70.3818H417.496C416.324 68.3115 413.609 67.8232 410.406 67.8232C407.223 67.8232 403.316 68.292 403.316 70.3818ZM430.953 88.0186V61.7686H461.676V68.4873H441.188V71.8467H461.676V77.9209H441.188V81.2803H461.676V88.0186H430.953ZM474.645 61.7686L482.32 71.1826L490.016 61.7686H502.164L487.438 79.0537V88.0186H477.203V79.0537L462.477 61.7686H474.645Z" fill="url(#paint0_linear_690_530)"/>
<defs>
<linearGradient id="paint0_linear_690_530" x1="242.5" y1="128" x2="242.5" y2="-27" gradientUnits="userSpaceOnUse">
<stop stop-color="#B6FF00"/>
<stop offset="1" stop-color="white"/>
</linearGradient>
</defs>
</svg>
