<svg width="346" height="337" viewBox="0 0 346 337" fill="none" xmlns="http://www.w3.org/2000/svg">
<rect x="271.601" y="229.447" width="31.0709" height="107.553" fill="url(#paint0_linear_690_882)"/>
<ellipse cx="191.236" cy="153.562" rx="52.766" ry="147.106" transform="rotate(30.4399 191.236 153.562)" fill="url(#paint1_linear_690_882)"/>
<rect x="271.601" y="174.475" width="84.8475" height="47.8014" rx="23.9007" transform="rotate(30 271.601 174.475)" fill="url(#paint2_linear_690_882)"/>
<path d="M279.464 50.3525L103.432 97.5195L251.034 182.738L246.344 190.862L99.6417 106.163L146.43 280.776L132.837 284.418L80.6339 89.5938L81.131 89.46L80.9982 88.9639L275.822 36.7607L279.464 50.3525Z" fill="url(#paint3_linear_690_882)"/>
<path d="M271.234 30.3662C290.346 54.9423 306.821 89.1494 310.775 130.995C314.729 172.841 263.326 260.518 232.682 268.488C196.106 278.002 155.247 287.751 120.978 284.43L122.088 282.552C148.924 289.08 198.305 245.683 236.729 180.295C274.756 115.583 288.745 51.9774 270.845 31.0234L271.234 30.3662Z" fill="url(#paint4_linear_690_882)"/>
<g filter="url(#filter0_g_690_882)">
<path d="M48.6061 18.6416L59.2202 49.0796L84.3542 28.8951L70.3367 57.9234L102.382 61.4231L71.9437 72.0373L92.1283 97.1713L63.1 83.1538L59.6002 115.199L48.986 84.7608L23.852 104.945L37.8696 75.9171L5.82452 72.4173L36.2625 61.8031L16.078 36.6691L45.1063 50.6867L48.6061 18.6416Z" fill="#B6FF00"/>
</g>
<defs>
<filter id="filter0_g_690_882" x="0.824524" y="13.6416" width="106.557" height="106.558" filterUnits="userSpaceOnUse" color-interpolation-filters="sRGB">
<feFlood flood-opacity="0" result="BackgroundImageFix"/>
<feBlend mode="normal" in="SourceGraphic" in2="BackgroundImageFix" result="shape"/>
<feTurbulence type="fractalNoise" baseFrequency="5 5" numOctaves="3" seed="4765" />
<feDisplacementMap in="shape" scale="10" xChannelSelector="R" yChannelSelector="G" result="displacedImage" width="100%" height="100%" />
<feMerge result="effect1_texture_690_882">
<feMergeNode in="displacedImage"/>
</feMerge>
</filter>
<linearGradient id="paint0_linear_690_882" x1="274.588" y1="286.809" x2="342.705" y2="290.394" gradientUnits="userSpaceOnUse">
<stop/>
<stop offset="1" stop-color="#666666"/>
</linearGradient>
<linearGradient id="paint1_linear_690_882" x1="245.116" y1="150.315" x2="125.068" y2="151.237" gradientUnits="userSpaceOnUse">
<stop stop-color="#D9D9D9"/>
<stop offset="1" stop-color="#A3A3A3"/>
</linearGradient>
<linearGradient id="paint2_linear_690_882" x1="313.515" y1="150.275" x2="314.024" y2="222.276" gradientUnits="userSpaceOnUse">
<stop stop-color="#666666"/>
<stop offset="1"/>
</linearGradient>
<linearGradient id="paint3_linear_690_882" x1="248.296" y1="186.425" x2="86.3694" y2="95.0055" gradientUnits="userSpaceOnUse">
<stop stop-color="white"/>
<stop offset="1" stop-color="#D5D5D5"/>
</linearGradient>
<linearGradient id="paint4_linear_690_882" x1="220.812" y1="259.92" x2="301.477" y2="85.4444" gradientUnits="userSpaceOnUse">
<stop stop-color="#010101"/>
<stop offset="1" stop-color="#676767"/>
</linearGradient>
</defs>
</svg>
