<svg width="361" height="132" viewBox="0 0 361 132" fill="none" xmlns="http://www.w3.org/2000/svg">
<rect x="200.25" y="19" width="120" height="50" rx="25" fill="#D9D9D9" fill-opacity="0.2"/>
<rect x="53.25" y="74" width="100" height="42" rx="21" fill="#D9D9D9" fill-opacity="0.2"/>
<rect x="0.25" y="95" width="80" height="33" rx="16.5" fill="#D9D9D9" fill-opacity="0.2"/>
<rect x="280.25" width="80" height="33" rx="16.5" fill="#D9D9D9" fill-opacity="0.2"/>
<rect x="243.25" y="90" width="100" height="42" rx="21" fill="#D9D9D9" fill-opacity="0.2"/>
<rect x="20.25" y="8" width="100" height="42" rx="21" fill="#D9D9D9" fill-opacity="0.2"/>
<rect x="70.25" y="37" width="120" height="50" rx="25" fill="#D9D9D9" fill-opacity="0.5"/>
<path d="M129.723 58.6484H127.242V62.6719H125.094V53.082H127.242V56.8711H129.723V58.6484ZM116.285 59.5469C118.902 59.5013 121.305 59.2539 123.492 58.8047L123.746 60.6016C121.194 61.0833 118.583 61.3242 115.914 61.3242H115.562H114.098V54.0195H116.285V59.5469ZM127.574 65.7188H122.73C122.815 66.2331 123.089 66.7214 123.551 67.1836C124.013 67.6393 124.645 68.0299 125.445 68.3555C126.253 68.681 127.19 68.9023 128.258 69.0195L127.496 70.6406C126.109 70.4648 124.905 70.1198 123.883 69.6055C122.861 69.0977 122.089 68.4629 121.568 67.7012C121.041 68.4629 120.27 69.0977 119.254 69.6055C118.238 70.1198 117.047 70.4648 115.68 70.6406L114.938 69.0195C115.992 68.9023 116.92 68.681 117.721 68.3555C118.521 68.0299 119.153 67.6393 119.615 67.1836C120.077 66.7214 120.351 66.2331 120.436 65.7188H115.562V64H120.484V62.1836H122.672V64H127.574V65.7188ZM137.027 55.0352C137.027 55.7839 137.187 56.5 137.506 57.1836C137.825 57.8672 138.297 58.4727 138.922 59C139.547 59.5273 140.302 59.931 141.188 60.2109L140.035 61.9102C139.098 61.5846 138.284 61.1159 137.594 60.5039C136.904 59.8854 136.36 59.166 135.963 58.3457C135.566 59.2702 135.003 60.071 134.273 60.748C133.551 61.4186 132.678 61.9232 131.656 62.2617L130.523 60.5625C131.448 60.2565 132.232 59.8236 132.877 59.2637C133.528 58.7038 134.016 58.0625 134.342 57.3398C134.674 56.6107 134.84 55.8424 134.84 55.0352V53.6289H137.027V55.0352ZM145.406 62.2422H143.238V57.7109H139.723V55.9531H143.238V53.082H145.406V62.2422ZM138.609 67.3984H134.84V68.8633C135.777 68.8568 136.536 68.8372 137.115 68.8047C137.695 68.7721 138.29 68.707 138.902 68.6094L139.059 70.2109C138.329 70.3542 137.62 70.4421 136.93 70.4746C136.24 70.5072 135.185 70.5234 133.766 70.5234H132.75V65.8945H136.5V64.625H132.711V62.9844H138.609V67.3984ZM145.406 70.5234H139.508V62.9844H145.406V70.5234ZM141.402 68.9023H143.512V64.6055H141.402V68.9023Z" fill="black"/>
<rect x="157.25" y="58" width="120" height="50" rx="25" fill="#D9D9D9" fill-opacity="0.5"/>
<path d="M208.363 74.2578C209.704 74.2578 210.847 74.375 211.791 74.6094C212.742 74.8438 213.467 75.1888 213.969 75.6445C214.47 76.0938 214.724 76.6406 214.73 77.2852C214.724 78.2617 214.167 79.0104 213.061 79.5312C211.954 80.0521 210.388 80.319 208.363 80.332C206.332 80.319 204.763 80.0521 203.656 79.5312C202.549 79.0104 201.996 78.2617 201.996 77.2852C201.996 76.6406 202.247 76.0938 202.748 75.6445C203.249 75.1888 203.975 74.8438 204.926 74.6094C205.876 74.375 207.022 74.2578 208.363 74.2578ZM208.363 75.8789C207.016 75.8789 205.993 75.9993 205.297 76.2402C204.607 76.4746 204.268 76.8229 204.281 77.2852C204.275 77.7669 204.61 78.125 205.287 78.3594C205.971 78.5938 206.996 78.7174 208.363 78.7305C209.743 78.7174 210.775 78.5938 211.459 78.3594C212.143 78.125 212.484 77.7669 212.484 77.2852C212.484 76.8229 212.136 76.4746 211.439 76.2402C210.749 75.9993 209.724 75.8789 208.363 75.8789ZM216.43 82.9492H209.438V84.2969H214.418V88.6133H204.379V89.9219H214.906V91.582H202.25V87.0703H212.289V85.8984H202.23V84.2969H207.27V82.9492H200.336V81.25H216.43V82.9492ZM232.328 84.5703H230.141V74.1016H232.328V84.5703ZM226.664 80.2539H220.688V82.0898C222.348 82.0833 223.747 82.0475 224.887 81.9824C226.033 81.9108 227.198 81.7773 228.383 81.582L228.656 83.3398C227.341 83.5482 226.046 83.6882 224.77 83.7598C223.5 83.8314 221.931 83.8672 220.062 83.8672H218.559V78.5938H224.516V76.8555H218.52V75.1367H226.664V80.2539ZM232.328 91.5234H220.609V85.3906H232.328V91.5234ZM222.758 89.7656H230.199V87.1289H222.758V89.7656Z" fill="black"/>
</svg>
