<svg width="289" height="35" viewBox="0 0 289 35" fill="none" xmlns="http://www.w3.org/2000/svg">
<path d="M0.474609 34.0249V1.2124H40.4893V11.6128H13.2676V15.6167H37.291V25.2114H13.2676V34.0249H0.474609ZM44.1758 34.0249V1.2124H82.5791V9.61084H56.9688V13.8101H82.5791V21.4028H56.9688V25.6021H82.5791V34.0249H44.1758ZM89.3906 1.16357H102.184V23.5757H127.794V33.9761H89.3906V1.16357ZM132.164 1.16357H144.957V23.5757H170.567V33.9761H132.164V1.16357ZM174.938 1.16357H187.73V33.9761H174.938V1.16357ZM226.524 18.5464V1.16357H239.342V33.9761H224.938L207.311 13.9321V33.9761H194.518V1.16357H212.12L226.524 18.5464ZM266.197 21.5737V15.9585H288.487V34.7817H282.091L281.456 29.6792C277.647 33.439 271.861 34.7817 266.295 34.7817C253.941 34.7329 243.834 31.1685 243.883 18.7661V16.3735C243.834 3.94678 253.941 0.382324 266.295 0.35791C277.672 0.35791 287.047 3.4585 288.487 13.5659H274.889C274.083 12.4673 272.911 11.7349 271.397 11.3442C269.884 10.9536 268.175 10.7583 266.295 10.7583C261.046 10.8315 256.603 11.8081 256.676 17.1548V17.9604C256.603 23.356 261.046 24.2837 266.295 24.3569C271.349 24.3569 274.571 24.064 276.5 21.5737H266.197Z" fill="white"/>
</svg>
