<svg width="224" height="34" viewBox="0 0 224 34" fill="none" xmlns="http://www.w3.org/2000/svg">
<path d="M0.820801 32.9761V0.163574H16.8364L29.6294 16.5698L42.4468 0.163574H58.438V32.9761H45.645V15.4712L32.8276 32.9761H26.4312L13.6138 15.4712V32.9761H0.820801ZM65.9087 33.0249V0.212402H104.312V8.61084H78.7017V12.8101H104.312V20.4028H78.7017V24.6021H104.312V33.0249H65.9087ZM143.13 16.6187C143.13 13.2983 141.25 10.6128 137.93 10.6128H123.917V22.6245H137.93C141.25 22.6245 143.13 19.9146 143.13 16.6187ZM111.124 0.212402H140.323C149.332 0.090332 156.021 7.65869 155.948 16.6187C156.021 25.5298 149.332 33.147 140.323 33.0249H111.124V0.212402ZM159.756 0.163574H172.549V32.9761H159.756V0.163574ZM198.746 9.70947L194.229 19.4019H203.238L198.746 9.70947ZM173.526 33.0249L191.128 0.212402H206.338L223.941 33.0249H209.537L206.949 27.4097H190.518L187.93 33.0249H173.526Z" fill="white"/>
</svg>
