<svg width="20" height="20" viewBox="0 0 20 20" fill="none" xmlns="http://www.w3.org/2000/svg">
<path d="M10.0003 1.66663C14.6028 1.66663 18.3337 5.39746 18.3337 9.99996C18.3348 11.2511 18.0537 12.4865 17.5112 13.6139C16.9687 14.7413 16.1788 15.7318 15.2003 16.5116L15.0012 16.6666H16.667C16.8794 16.6669 17.0837 16.7482 17.2381 16.894C17.3926 17.0398 17.4855 17.2391 17.498 17.4511C17.5104 17.6632 17.4414 17.8719 17.3051 18.0348C17.1688 18.1977 16.9754 18.3024 16.7645 18.3275L16.667 18.3333H10.0003C5.39783 18.3333 1.66699 14.6025 1.66699 9.99996C1.66699 5.39746 5.39783 1.66663 10.0003 1.66663ZM10.0003 3.33329C8.23222 3.33329 6.53652 4.03567 5.28628 5.28591C4.03604 6.53616 3.33366 8.23185 3.33366 9.99996C3.33366 11.7681 4.03604 13.4638 5.28628 14.714C6.53652 15.9642 8.23222 16.6666 10.0003 16.6666C11.7684 16.6666 13.4641 15.9642 14.7144 14.714C15.9646 13.4638 16.667 11.7681 16.667 9.99996C16.667 8.23185 15.9646 6.53616 14.7144 5.28591C13.4641 4.03567 11.7684 3.33329 10.0003 3.33329ZM10.0003 11.6666C10.4424 11.6666 10.8663 11.8422 11.1788 12.1548C11.4914 12.4673 11.667 12.8913 11.667 13.3333C11.667 13.7753 11.4914 14.1992 11.1788 14.5118C10.8663 14.8244 10.4424 15 10.0003 15C9.5583 15 9.13438 14.8244 8.82181 14.5118C8.50925 14.1992 8.33366 13.7753 8.33366 13.3333C8.33366 12.8913 8.50925 12.4673 8.82181 12.1548C9.13438 11.8422 9.5583 11.6666 10.0003 11.6666ZM6.66699 8.33329C7.10902 8.33329 7.53294 8.50889 7.8455 8.82145C8.15806 9.13401 8.33366 9.55793 8.33366 9.99996C8.33366 10.442 8.15806 10.8659 7.8455 11.1785C7.53294 11.491 7.10902 11.6666 6.66699 11.6666C6.22496 11.6666 5.80104 11.491 5.48848 11.1785C5.17592 10.8659 5.00033 10.442 5.00033 9.99996C5.00033 9.55793 5.17592 9.13401 5.48848 8.82145C5.80104 8.50889 6.22496 8.33329 6.66699 8.33329ZM13.3337 8.33329C13.7757 8.33329 14.1996 8.50889 14.5122 8.82145C14.8247 9.13401 15.0003 9.55793 15.0003 9.99996C15.0003 10.442 14.8247 10.8659 14.5122 11.1785C14.1996 11.491 13.7757 11.6666 13.3337 11.6666C12.8916 11.6666 12.4677 11.491 12.1551 11.1785C11.8426 10.8659 11.667 10.442 11.667 9.99996C11.667 9.55793 11.8426 9.13401 12.1551 8.82145C12.4677 8.50889 12.8916 8.33329 13.3337 8.33329ZM10.0003 4.99996C10.4424 4.99996 10.8663 5.17555 11.1788 5.48811C11.4914 5.80067 11.667 6.2246 11.667 6.66663C11.667 7.10865 11.4914 7.53258 11.1788 7.84514C10.8663 8.1577 10.4424 8.33329 10.0003 8.33329C9.5583 8.33329 9.13438 8.1577 8.82181 7.84514C8.50925 7.53258 8.33366 7.10865 8.33366 6.66663C8.33366 6.2246 8.50925 5.80067 8.82181 5.48811C9.13438 5.17555 9.5583 4.99996 10.0003 4.99996Z" fill="#B6FF00"/>
</svg>
