<svg width="20" height="20" viewBox="0 0 20 20" fill="none" xmlns="http://www.w3.org/2000/svg">
<path d="M17.5003 2.5V12.9167C17.5003 13.6902 17.193 14.4321 16.6461 14.9791C16.0991 15.526 15.3572 15.8333 14.5837 15.8333C13.8101 15.8333 13.0682 15.526 12.5213 14.9791C11.9743 14.4321 11.667 13.6902 11.667 12.9167C11.667 12.1431 11.9743 11.4013 12.5213 10.8543C13.0682 10.3073 13.8101 10 14.5837 10C15.0337 10 15.4587 10.1 15.8337 10.2833V5.39167L7.50033 7.16667V14.5833C7.50033 15.3569 7.19303 16.0987 6.64605 16.6457C6.09907 17.1927 5.35721 17.5 4.58366 17.5C3.81011 17.5 3.06825 17.1927 2.52126 16.6457C1.97428 16.0987 1.66699 15.3569 1.66699 14.5833C1.66699 13.8098 1.97428 13.0679 2.52126 12.5209C3.06825 11.974 3.81011 11.6667 4.58366 11.6667C5.03366 11.6667 5.45866 11.7667 5.83366 11.95V5L17.5003 2.5Z" fill="#B6FF00"/>
</svg>
