<svg width="400" height="300" viewBox="0 0 400 300" fill="none" xmlns="http://www.w3.org/2000/svg">
<path d="M390 0C395.523 4.5098e-07 400 4.47715 400 10V56C400 56.4977 399.962 56.9866 399.892 57.4648C399.962 58.3007 400 59.1461 400 60V270C400 286.569 386.569 300 370 300H30C13.4315 300 8.36783e-06 286.569 0 270V60C0 43.4315 13.4315 30 30 30H231.272L246.097 4.91309C247.896 1.86844 251.17 8.72392e-05 254.706 0H390Z" fill="#708F22"/>
<rect x="52" y="125.925" width="260" height="140" transform="rotate(-20 52 125.925)" fill="url(#paint0_linear_690_776)"/>
<path d="M175.787 112.105C177.25 116.125 180.605 119.861 185.661 120.047L184.674 123.929C181.301 123.785 178.498 122.124 176.317 119.644C176.368 123.211 175.324 126.553 172.846 128.951L169.456 126.662C173.132 123.142 173.293 117.845 171.74 113.578L171.379 112.587L166.204 114.471L165.031 111.25L179.319 106.049L180.492 109.271L175.426 111.114L175.787 112.105ZM184.587 101.42L193.785 126.692L189.793 128.145L180.595 102.873L184.587 101.42ZM209.99 93.4208L210.742 95.4856C211.453 97.4402 212.235 99.5875 212.706 102.596L215.9 101.434L217.052 104.6L193.954 113.007L192.802 109.841L208.687 104.059C208.341 101.566 207.766 99.6865 207.168 98.0021L193.458 102.992L192.316 99.8537L209.99 93.4208ZM215.136 108.072L218.523 117.377L200.931 123.78L197.544 114.475L215.136 108.072ZM202.548 116.145L203.66 119.201L213.434 115.644L212.321 112.588L202.548 116.145ZM171.236 144.59L180.435 169.862L176.415 171.325L167.217 146.053L171.236 144.59ZM164.59 149.97C167.425 157.761 167.252 164.995 159.63 172.664L156.423 170.277C161.744 164.895 163.085 160.183 161.665 154.527L153.406 157.533L152.284 154.449L164.59 149.97ZM203.634 148.012L204.776 151.151L181.678 159.557L180.536 156.419L190.144 152.922L189.583 151.38L182.811 153.845L180.185 146.632L193.73 141.702L193.299 140.519L179.727 145.459L178.615 142.403L196.179 136.01L198.754 143.085L185.154 148.035L185.645 149.384L199.686 144.274L200.788 147.302L193.492 149.957L194.053 151.499L203.634 148.012ZM202.649 153.359L205.325 160.709L201.333 162.162L199.79 157.923L185.859 162.993L184.727 159.882L202.649 153.359ZM221.489 126.299L225.027 136.017L228.605 134.714L229.798 137.99L226.219 139.293L230.688 151.571L226.779 152.994L217.58 127.722L221.489 126.299ZM217.436 131.952L218.579 135.09L203.795 140.471L202.653 137.333L208.131 135.339L206.939 132.063L210.903 130.62L212.095 133.896L217.436 131.952ZM211.696 138.967C215.385 137.624 219.115 139.135 220.435 142.676C221.711 146.265 219.814 149.793 216.125 151.135C212.326 152.518 208.634 151.025 207.359 147.436C206.039 143.894 207.897 140.35 211.696 138.967ZM212.859 142.16C211.244 142.779 210.469 144.246 211.158 146.053C211.812 147.935 213.329 148.505 214.953 147.914C216.522 147.343 217.29 145.941 216.636 144.059C215.947 142.252 214.438 141.617 212.859 142.16ZM248.557 116.447L257.755 141.72L253.736 143.183L244.538 117.91L248.557 116.447ZM241.911 121.828C244.746 129.619 244.573 136.853 236.951 144.522L233.744 142.135C239.065 136.753 240.406 132.041 238.986 126.384L230.727 129.39L229.605 126.307L241.911 121.828Z" fill="black"/>
<rect y="69.9995" width="400" height="230" rx="30" fill="url(#paint1_linear_690_776)"/>
<defs>
<linearGradient id="paint0_linear_690_776" x1="265.971" y1="127.511" x2="126.984" y2="267.607" gradientUnits="userSpaceOnUse">
<stop stop-color="white"/>
<stop offset="1" stop-color="#E8E8E8"/>
</linearGradient>
<linearGradient id="paint1_linear_690_776" x1="200" y1="69.9995" x2="200" y2="300" gradientUnits="userSpaceOnUse">
<stop stop-color="#B6FF00"/>
<stop offset="1" stop-color="#708F22"/>
</linearGradient>
</defs>
</svg>
