<svg width="400" height="315" viewBox="0 0 400 315" fill="none" xmlns="http://www.w3.org/2000/svg">
<path d="M390 15.0005C395.523 15.0005 400 19.4776 400 25.0005V71.0005C400 71.4982 399.962 71.9871 399.892 72.4653C399.962 73.3012 400 74.1466 400 75.0005V285C400 301.569 386.569 315 370 315H30C13.4315 315 8.36783e-06 301.569 0 285V75.0005C0 58.4319 13.4315 45.0005 30 45.0005H231.272L246.097 19.9136C247.896 16.8689 251.17 15.0006 254.706 15.0005H390Z" fill="#708F22"/>
<rect x="52" y="88.9253" width="260" height="140" transform="rotate(-20 52 88.9253)" fill="url(#paint0_linear_690_777)"/>
<path d="M175.787 93.1053C177.25 97.1247 180.605 100.861 185.661 101.047L184.674 104.929C181.301 104.785 178.498 103.124 176.317 100.644C176.368 104.211 175.324 107.553 172.846 109.951L169.456 107.662C173.132 104.142 173.293 98.8454 171.74 94.5782L171.379 93.5872L166.204 95.4709L165.031 92.2499L179.319 87.0495L180.492 90.2705L175.426 92.1142L175.787 93.1053ZM184.587 82.4199L193.785 107.692L189.793 109.145L180.595 83.8728L184.587 82.4199ZM209.99 74.4208L210.742 76.4856C211.453 78.4402 212.235 80.5875 212.706 83.596L215.9 82.4337L217.052 85.5996L193.954 94.0065L192.802 90.8406L208.687 85.0589C208.341 82.5661 207.766 80.6865 207.168 79.0021L193.458 83.9922L192.316 80.8537L209.99 74.4208ZM215.136 89.0719L218.523 98.377L200.931 104.78L197.544 95.4747L215.136 89.0719ZM202.548 97.1452L203.66 100.201L213.434 96.6439L212.321 93.5881L202.548 97.1452ZM171.236 125.59L180.435 150.862L176.415 152.325L167.217 127.053L171.236 125.59ZM164.59 130.97C167.425 138.761 167.252 145.995 159.63 153.664L156.423 151.277C161.744 145.895 163.085 141.183 161.665 135.527L153.406 138.533L152.284 135.449L164.59 130.97ZM203.634 129.012L204.776 132.151L181.678 140.557L180.536 137.419L190.144 133.922L189.583 132.38L182.811 134.845L180.185 127.632L193.73 122.702L193.299 121.519L179.727 126.459L178.615 123.403L196.179 117.01L198.754 124.085L185.154 129.035L185.645 130.384L199.686 125.274L200.788 128.302L193.492 130.957L194.053 132.499L203.634 129.012ZM202.649 134.359L205.325 141.709L201.333 143.162L199.79 138.923L185.859 143.993L184.727 140.882L202.649 134.359ZM221.489 107.299L225.027 117.017L228.605 115.714L229.798 118.99L226.219 120.293L230.688 132.571L226.779 133.994L217.58 108.722L221.489 107.299ZM217.436 112.952L218.579 116.09L203.795 121.471L202.653 118.333L208.131 116.339L206.939 113.063L210.903 111.62L212.095 114.896L217.436 112.952ZM211.696 119.967C215.385 118.624 219.115 120.135 220.435 123.676C221.711 127.265 219.814 130.793 216.125 132.135C212.326 133.518 208.634 132.025 207.359 128.436C206.039 124.894 207.897 121.35 211.696 119.967ZM212.859 123.16C211.244 123.779 210.469 125.246 211.158 127.053C211.812 128.935 213.329 129.505 214.953 128.914C216.522 128.343 217.29 126.941 216.636 125.059C215.947 123.252 214.438 122.617 212.859 123.16ZM248.557 97.4471L257.755 122.72L253.736 124.183L244.538 98.91L248.557 97.4471ZM241.911 102.828C244.746 110.619 244.573 117.853 236.951 125.522L233.744 123.135C239.065 117.753 240.406 113.041 238.986 107.384L230.727 110.39L229.605 107.307L241.911 102.828Z" fill="black"/>
<rect y="205" width="400" height="110" rx="30" fill="url(#paint1_linear_690_777)"/>
<defs>
<linearGradient id="paint0_linear_690_777" x1="265.971" y1="90.5116" x2="126.984" y2="230.608" gradientUnits="userSpaceOnUse">
<stop stop-color="white"/>
<stop offset="1" stop-color="#E8E8E8"/>
</linearGradient>
<linearGradient id="paint1_linear_690_777" x1="200" y1="205" x2="200" y2="315" gradientUnits="userSpaceOnUse">
<stop stop-color="#B6FF00"/>
<stop offset="1" stop-color="#708F22"/>
</linearGradient>
</defs>
</svg>
