<svg width="20" height="20" viewBox="0 0 20 20" fill="none" xmlns="http://www.w3.org/2000/svg">
<path d="M13.107 3.23667C14.302 2.03667 16.0504 2.01167 17.0179 2.98334C17.9879 3.95667 17.962 5.71667 16.7654 6.91667L14.7462 8.94417C14.6325 9.0622 14.5697 9.22017 14.5714 9.38405C14.573 9.54793 14.639 9.7046 14.755 9.82032C14.8711 9.93604 15.028 10.0016 15.1918 10.0027C15.3557 10.0039 15.5135 9.9407 15.6312 9.82667L17.6512 7.79917C19.2437 6.2 19.4437 3.6475 17.9037 2.10084C16.3621 0.553336 13.8145 0.755003 12.2204 2.35417L8.18205 6.41C6.58955 8.00917 6.38955 10.5617 7.92955 12.1075C7.98707 12.1673 8.05592 12.2151 8.13209 12.248C8.20826 12.2809 8.29023 12.2983 8.3732 12.2993C8.45618 12.3002 8.53851 12.2845 8.61538 12.2533C8.69226 12.2221 8.76214 12.1758 8.82096 12.1173C8.87977 12.0587 8.92634 11.9891 8.95795 11.9123C8.98955 11.8356 9.00556 11.7534 9.00504 11.6704C9.00453 11.5874 8.98749 11.5054 8.95492 11.429C8.92236 11.3527 8.87493 11.2836 8.81538 11.2258C7.84538 10.2525 7.87205 8.4925 9.06788 7.2925L13.107 3.23667Z" fill="white"/>
<path d="M12.0706 7.89165C11.9534 7.77419 11.7944 7.70806 11.6285 7.70783C11.4626 7.70759 11.3035 7.77327 11.186 7.8904C11.0685 8.00754 11.0024 8.16655 11.0022 8.33244C11.0019 8.49833 11.0676 8.65752 11.1847 8.77499C12.1547 9.74832 12.1289 11.5075 10.9322 12.7083L6.89307 16.7633C5.69723 17.9633 3.9489 17.9883 2.9814 17.0167C2.0114 16.0433 2.03806 14.2833 3.2339 13.0833L5.2539 11.0558C5.31184 10.9977 5.35777 10.9286 5.38904 10.8527C5.42032 10.7768 5.43634 10.6955 5.43618 10.6134C5.43603 10.5313 5.4197 10.45 5.38814 10.3742C5.35658 10.2984 5.3104 10.2296 5.25223 10.1717C5.19407 10.1137 5.12506 10.0678 5.04915 10.0365C4.97323 10.0052 4.89191 9.98922 4.8098 9.98937C4.7277 9.98953 4.64643 10.0058 4.57064 10.0374C4.49485 10.069 4.42601 10.1152 4.36806 10.1733L2.34806 12.2008C0.755565 13.8008 0.555565 16.3525 2.09556 17.8992C3.63723 19.4475 6.18473 19.245 7.7789 17.6458L11.8181 13.59C13.4106 11.9917 13.6106 9.43749 12.0706 7.89165Z" fill="white"/>
</svg>
