<svg width="161" height="160" viewBox="0 0 161 160" fill="none" xmlns="http://www.w3.org/2000/svg">
<path d="M112.5 64C112.5 72.4869 109.129 80.6263 103.127 86.6274C97.1263 92.6286 88.9869 96 80.5 96C72.0131 96 63.8737 92.6286 57.8726 86.6274C51.8714 80.6263 48.5 72.4869 48.5 64C48.5 55.5131 51.8714 47.3737 57.8726 41.3726C63.8737 35.3714 72.0131 32 80.5 32C88.9869 32 97.1263 35.3714 103.127 41.3726C109.129 47.3737 112.5 55.5131 112.5 64Z" fill="#B9B9B9"/>
<path fill-rule="evenodd" clip-rule="evenodd" d="M77.236 159.936C34.568 158.224 0.5 123.088 0.5 80C0.5 35.816 36.316 0 80.5 0C124.684 0 160.5 35.816 160.5 80C160.5 124.184 124.684 160 80.5 160H79.404C78.6787 160 77.956 159.979 77.236 159.936ZM29.164 130.48C28.5659 128.762 28.3623 126.932 28.5683 125.125C28.7744 123.318 29.3848 121.58 30.3543 120.041C31.3238 118.502 32.6274 117.201 34.1685 116.235C35.7095 115.269 37.4484 114.662 39.256 114.46C70.44 111.008 90.752 111.32 121.784 114.532C123.594 114.72 125.337 115.32 126.881 116.284C128.424 117.248 129.727 118.551 130.691 120.095C131.655 121.639 132.253 123.382 132.441 125.192C132.629 127.002 132.402 128.831 131.776 130.54C145.076 117.084 152.525 98.9199 152.5 80C152.5 40.236 120.264 8 80.5 8C40.736 8 8.5 40.236 8.5 80C8.5 99.664 16.384 117.488 29.164 130.48Z" fill="#B9B9B9"/>
</svg>
