<svg width="25" height="25" viewBox="0 0 25 25" fill="none" xmlns="http://www.w3.org/2000/svg">
<mask id="mask0_690_2284" style="mask-type:alpha" maskUnits="userSpaceOnUse" x="0" y="0" width="25" height="25">
<circle cx="12.5" cy="12.5" r="12.5" fill="#D9D9D9"/>
</mask>
<g mask="url(#mask0_690_2284)">
<path d="M18.1816 21.815C17.0791 22.8838 15.8753 22.715 14.7166 22.2087C13.4903 21.6912 12.3653 21.6687 11.0716 22.2087C9.45156 22.9062 8.59656 22.7038 7.62906 21.815C2.13906 16.1563 2.94906 7.53875 9.18156 7.22375C10.7003 7.3025 11.7578 8.05625 12.6466 8.12375C13.9741 7.85375 15.2453 7.0775 16.6628 7.17875C18.3616 7.31375 19.6441 7.98875 20.4878 9.20375C16.9778 11.3075 17.8103 15.9313 21.0278 17.225C20.3866 18.9125 19.5541 20.5888 18.1703 21.8263L18.1816 21.815ZM12.5341 7.15625C12.3653 4.6475 14.4016 2.5775 16.7416 2.375C17.0678 5.2775 14.1091 7.4375 12.5341 7.15625Z" fill="white"/>
</g>
</svg>
