<svg width="25" height="25" viewBox="0 0 25 25" fill="none" xmlns="http://www.w3.org/2000/svg">
<mask id="mask0_690_2293" style="mask-type:alpha" maskUnits="userSpaceOnUse" x="0" y="0" width="25" height="25">
<circle cx="12.5" cy="12.5" r="12.5" fill="#D9D9D9"/>
</mask>
<g mask="url(#mask0_690_2293)">
<path d="M8.8 3H17.2C20.4 3 23 5.6 23 8.8V17.2C23 18.7383 22.3889 20.2135 21.3012 21.3012C20.2135 22.3889 18.7383 23 17.2 23H8.8C5.6 23 3 20.4 3 17.2V8.8C3 7.26174 3.61107 5.78649 4.69878 4.69878C5.78649 3.61107 7.26174 3 8.8 3ZM8.6 5C7.64522 5 6.72955 5.37928 6.05442 6.05442C5.37928 6.72955 5 7.64522 5 8.6V17.4C5 19.39 6.61 21 8.6 21H17.4C18.3548 21 19.2705 20.6207 19.9456 19.9456C20.6207 19.2705 21 18.3548 21 17.4V8.6C21 6.61 19.39 5 17.4 5H8.6ZM18.25 6.5C18.5815 6.5 18.8995 6.6317 19.1339 6.86612C19.3683 7.10054 19.5 7.41848 19.5 7.75C19.5 8.08152 19.3683 8.39946 19.1339 8.63388C18.8995 8.8683 18.5815 9 18.25 9C17.9185 9 17.6005 8.8683 17.3661 8.63388C17.1317 8.39946 17 8.08152 17 7.75C17 7.41848 17.1317 7.10054 17.3661 6.86612C17.6005 6.6317 17.9185 6.5 18.25 6.5ZM13 8C14.3261 8 15.5979 8.52678 16.5355 9.46447C17.4732 10.4021 18 11.6739 18 13C18 14.3261 17.4732 15.5979 16.5355 16.5355C15.5979 17.4732 14.3261 18 13 18C11.6739 18 10.4021 17.4732 9.46447 16.5355C8.52678 15.5979 8 14.3261 8 13C8 11.6739 8.52678 10.4021 9.46447 9.46447C10.4021 8.52678 11.6739 8 13 8ZM13 10C12.2044 10 11.4413 10.3161 10.8787 10.8787C10.3161 11.4413 10 12.2044 10 13C10 13.7956 10.3161 14.5587 10.8787 15.1213C11.4413 15.6839 12.2044 16 13 16C13.7956 16 14.5587 15.6839 15.1213 15.1213C15.6839 14.5587 16 13.7956 16 13C16 12.2044 15.6839 11.4413 15.1213 10.8787C14.5587 10.3161 13.7956 10 13 10Z" fill="white"/>
</g>
</svg>
