<svg width="25" height="25" viewBox="0 0 25 25" fill="none" xmlns="http://www.w3.org/2000/svg">
<mask id="mask0_690_2287" style="mask-type:alpha" maskUnits="userSpaceOnUse" x="0" y="0" width="25" height="25">
<circle cx="12.5" cy="12.5" r="12.5" fill="#D9D9D9"/>
</mask>
<g mask="url(#mask0_690_2287)">
<path d="M10.4163 15.6247L15.8226 12.4997L10.4163 9.37467V15.6247ZM22.458 7.46842C22.5934 7.95801 22.6872 8.61426 22.7497 9.44759C22.8226 10.2809 22.8538 10.9997 22.8538 11.6247L22.9163 12.4997C22.9163 14.7809 22.7497 16.458 22.458 17.5309C22.1976 18.4684 21.5934 19.0726 20.6559 19.333C20.1663 19.4684 19.2705 19.5622 17.8955 19.6247C16.5413 19.6976 15.3018 19.7288 14.1559 19.7288L12.4997 19.7913C8.13509 19.7913 5.41634 19.6247 4.34342 19.333C3.40592 19.0726 2.80176 18.4684 2.54134 17.5309C2.40592 17.0413 2.31217 16.3851 2.24967 15.5518C2.17676 14.7184 2.14551 13.9997 2.14551 13.3747L2.08301 12.4997C2.08301 10.2184 2.24967 8.54134 2.54134 7.46842C2.80176 6.53092 3.40592 5.92676 4.34342 5.66634C4.83301 5.53092 5.72884 5.43717 7.10384 5.37467C8.45801 5.30176 9.69759 5.27051 10.8434 5.27051L12.4997 5.20801C16.8643 5.20801 19.583 5.37467 20.6559 5.66634C21.5934 5.92676 22.1976 6.53092 22.458 7.46842Z" fill="white"/>
</g>
</svg>
