<svg width="25" height="25" viewBox="0 0 25 25" fill="none" xmlns="http://www.w3.org/2000/svg">
<mask id="mask0_690_2281" style="mask-type:alpha" maskUnits="userSpaceOnUse" x="0" y="0" width="25" height="25">
<circle cx="12.5" cy="12.5" r="12.5" fill="#D9D9D9"/>
</mask>
<g mask="url(#mask0_690_2281)">
<path d="M16 14.1783L18.4558 16.6341L10.375 21.2991C10.1756 21.4155 9.94763 21.4739 9.71681 21.4679C9.48598 21.4619 9.26142 21.3916 9.06833 21.2649L8.97833 21.1999L16 14.1783ZM8.5 6.67828L14.8217 13L8.5 19.3216V6.67828ZM19.95 10.2283L22.875 11.9175C23.7083 12.3983 23.7083 13.6008 22.875 14.0824L19.95 15.7716L17.1783 13L19.95 10.2283ZM10.375 4.70078L18.4558 9.36578L16 11.8216L8.97833 4.79912C9.17423 4.64414 9.41232 4.55186 9.66148 4.53432C9.91065 4.51677 10.1593 4.57479 10.375 4.70078Z" fill="white"/>
</g>
</svg>
