<svg width="20" height="20" viewBox="0 0 20 20" fill="none" xmlns="http://www.w3.org/2000/svg">
<path d="M10.0001 1.66699C14.6026 1.66699 18.3334 5.39783 18.3334 10.0003C18.3346 11.2515 18.0535 12.4868 17.5109 13.6143C16.9684 14.7417 16.1785 15.7322 15.2001 16.512L15.0009 16.667H16.6667C16.8791 16.6672 17.0834 16.7486 17.2379 16.8944C17.3923 17.0402 17.4853 17.2395 17.4977 17.4515C17.5102 17.6635 17.4412 17.8723 17.3049 18.0352C17.1685 18.1981 16.9752 18.3027 16.7642 18.3278L16.6667 18.3337H10.0001C5.39758 18.3337 1.66675 14.6028 1.66675 10.0003C1.66675 5.39783 5.39758 1.66699 10.0001 1.66699ZM10.0001 3.33366C8.23197 3.33366 6.53628 4.03604 5.28604 5.28628C4.03579 6.53652 3.33341 8.23222 3.33341 10.0003C3.33341 11.7684 4.03579 13.4641 5.28604 14.7144C6.53628 15.9646 8.23197 16.667 10.0001 16.667C11.7682 16.667 13.4639 15.9646 14.7141 14.7144C15.9644 13.4641 16.6667 11.7684 16.6667 10.0003C16.6667 8.23222 15.9644 6.53652 14.7141 5.28628C13.4639 4.03604 11.7682 3.33366 10.0001 3.33366ZM10.0001 11.667C10.4421 11.667 10.866 11.8426 11.1786 12.1551C11.4912 12.4677 11.6667 12.8916 11.6667 13.3337C11.6667 13.7757 11.4912 14.1996 11.1786 14.5122C10.866 14.8247 10.4421 15.0003 10.0001 15.0003C9.55805 15.0003 9.13413 14.8247 8.82157 14.5122C8.50901 14.1996 8.33341 13.7757 8.33341 13.3337C8.33341 12.8916 8.50901 12.4677 8.82157 12.1551C9.13413 11.8426 9.55805 11.667 10.0001 11.667ZM6.66675 8.33366C7.10878 8.33366 7.5327 8.50925 7.84526 8.82181C8.15782 9.13438 8.33341 9.5583 8.33341 10.0003C8.33341 10.4424 8.15782 10.8663 7.84526 11.1788C7.5327 11.4914 7.10878 11.667 6.66675 11.667C6.22472 11.667 5.8008 11.4914 5.48824 11.1788C5.17568 10.8663 5.00008 10.4424 5.00008 10.0003C5.00008 9.5583 5.17568 9.13438 5.48824 8.82181C5.8008 8.50925 6.22472 8.33366 6.66675 8.33366ZM13.3334 8.33366C13.7754 8.33366 14.1994 8.50925 14.5119 8.82181C14.8245 9.13438 15.0001 9.5583 15.0001 10.0003C15.0001 10.4424 14.8245 10.8663 14.5119 11.1788C14.1994 11.4914 13.7754 11.667 13.3334 11.667C12.8914 11.667 12.4675 11.4914 12.1549 11.1788C11.8423 10.8663 11.6667 10.4424 11.6667 10.0003C11.6667 9.5583 11.8423 9.13438 12.1549 8.82181C12.4675 8.50925 12.8914 8.33366 13.3334 8.33366ZM10.0001 5.00033C10.4421 5.00033 10.866 5.17592 11.1786 5.48848C11.4912 5.80104 11.6667 6.22496 11.6667 6.66699C11.6667 7.10902 11.4912 7.53294 11.1786 7.8455C10.866 8.15806 10.4421 8.33366 10.0001 8.33366C9.55805 8.33366 9.13413 8.15806 8.82157 7.8455C8.50901 7.53294 8.33341 7.10902 8.33341 6.66699C8.33341 6.22496 8.50901 5.80104 8.82157 5.48848C9.13413 5.17592 9.55805 5.00033 10.0001 5.00033Z" fill="white"/>
</svg>
