<svg width="20" height="20" viewBox="0 0 20 20" fill="none" xmlns="http://www.w3.org/2000/svg">
<path d="M17.5001 2.50049V12.9172C17.5001 13.6907 17.1928 14.4326 16.6458 14.9796C16.0988 15.5265 15.357 15.8338 14.5834 15.8338C13.8099 15.8338 13.068 15.5265 12.521 14.9796C11.974 14.4326 11.6667 13.6907 11.6667 12.9172C11.6667 12.1436 11.974 11.4017 12.521 10.8548C13.068 10.3078 13.8099 10.0005 14.5834 10.0005C15.0334 10.0005 15.4584 10.1005 15.8334 10.2838V5.39215L7.50008 7.16716V14.5838C7.50008 15.3574 7.19279 16.0992 6.64581 16.6462C6.09883 17.1932 5.35696 17.5005 4.58341 17.5005C3.80987 17.5005 3.068 17.1932 2.52102 16.6462C1.97404 16.0992 1.66675 15.3574 1.66675 14.5838C1.66675 13.8103 1.97404 13.0684 2.52102 12.5214C3.068 11.9744 3.80987 11.6672 4.58341 11.6672C5.03341 11.6672 5.45841 11.7672 5.83341 11.9505V5.00049L17.5001 2.50049Z" fill="white"/>
</svg>
