<svg width="64" height="66" viewBox="0 0 64 66" fill="none" xmlns="http://www.w3.org/2000/svg">
<path d="M24.5266 2.15072C24.8505 0.525005 26.898 -0.0236114 27.9914 1.22235L40.6042 15.5956C41.0384 16.0904 41.6882 16.3398 42.342 16.2626L61.3327 14.0209C62.9789 13.8266 64.1334 15.6043 63.2863 17.0292L53.5141 33.4663C53.1777 34.0321 53.1413 34.7272 53.4167 35.3251L61.4172 52.6936C62.1107 54.1992 60.7768 55.8465 59.1598 55.4812L40.5075 51.2666C39.8654 51.1215 39.193 51.3017 38.7095 51.7484L24.6634 64.7245C23.4458 65.8493 21.4669 65.0897 21.3147 63.439L19.559 44.3972C19.4986 43.7417 19.1195 43.1579 18.5453 42.8361L1.86376 33.4873C0.417698 32.6768 0.528634 30.5601 2.05148 29.9052L19.6188 22.3513C20.2235 22.0913 20.6616 21.5503 20.7902 20.9047L24.5266 2.15072Z" fill="#B6FF00"/>
</svg>
