<svg width="3249" height="72" viewBox="0 0 3249 72" fill="none" xmlns="http://www.w3.org/2000/svg">
<mask id="path-1-outside-1_705_412" maskUnits="userSpaceOnUse" x="0" y="0" width="3249" height="72" fill="black">
<rect fill="white" width="3249" height="72"/>
<path d="M65.9902 36.9688V3.32617H91.625V38.5801C91.7227 63.3848 71.4102 70.5137 46.8008 70.5625C22.1914 70.5137 1.87891 63.3848 1.97656 38.5801V3.32617H27.5625V36.9688C27.4648 47.7598 36.3027 49.6152 46.8008 49.7617C57.25 49.6152 66.1367 47.7598 65.9902 36.9688ZM167.162 38.0918V3.32617H192.797V68.9512H163.988L128.734 28.8633V68.9512H103.148V3.32617H138.354L167.162 38.0918ZM207.738 69.0488V3.42383H287.768V24.2246H233.324V32.2324H281.371V51.4219H233.324V69.0488H207.738ZM337.133 1.71484C361.84 1.71484 381.908 8.94141 381.908 33.7461V38.5312C382.006 63.3359 361.791 70.5137 337.133 70.5625C312.426 70.5137 292.211 63.3359 292.309 38.5312V33.7461C292.211 8.89258 312.426 1.76367 337.133 1.71484ZM356.322 36.9199V35.3086C356.469 24.6152 347.582 22.6621 337.133 22.5156C326.635 22.6621 317.748 24.6152 317.895 35.3086V36.9199C317.748 47.6621 326.635 49.6152 337.133 49.7617C347.582 49.6152 356.469 47.6621 356.322 36.9199ZM389.574 3.32617H415.16V48.1504H466.381V68.9512H389.574V3.32617ZM539.135 36.2363C539.135 29.5957 535.375 24.2246 528.734 24.2246H500.707V48.248H528.734C535.375 48.248 539.135 42.8281 539.135 36.2363ZM475.121 3.42383H533.52C551.537 3.17969 564.916 18.3164 564.77 36.2363C564.916 54.0586 551.537 69.293 533.52 69.0488H475.121V3.42383ZM645.971 3.42383L665.16 26.959L684.398 3.42383H714.77L677.953 46.6367V69.0488H652.367V46.6367L615.551 3.42383H645.971ZM751.684 1.71484C776.391 1.71484 796.459 8.94141 796.459 33.7461V38.5312C796.557 63.3359 776.342 70.5137 751.684 70.5625C726.977 70.5137 706.762 63.3359 706.859 38.5312V33.7461C706.762 8.89258 726.977 1.76367 751.684 1.71484ZM770.873 36.9199V35.3086C771.02 24.6152 762.133 22.6621 751.684 22.5156C741.186 22.6621 732.299 24.6152 732.445 35.3086V36.9199C732.299 47.6621 741.186 49.6152 751.684 49.7617C762.133 49.6152 771.02 47.6621 770.873 36.9199ZM867.748 36.9688V3.32617H893.383V38.5801C893.48 63.3848 873.168 70.5137 848.559 70.5625C823.949 70.5137 803.637 63.3848 803.734 38.5801V3.32617H829.32V36.9688C829.223 47.7598 838.061 49.6152 848.559 49.7617C859.008 49.6152 867.895 47.7598 867.748 36.9688ZM904.906 3.375H968.139C981.664 3.22852 993.139 14.6055 992.943 28.1797C992.943 33.1113 991.625 37.6035 988.988 41.6074C986.4 45.5625 982.934 48.5898 978.637 50.5918L992.943 69H965.697L953.344 52.9844H930.492V69H904.906V3.375ZM961.693 22.5645H930.492V33.7461H961.693C963.256 33.7461 964.574 33.209 965.648 32.1348C966.771 31.0117 967.309 29.6934 967.309 28.1797C967.309 25.0547 964.818 22.5645 961.693 22.5645ZM1043.77 69.0488V3.42383H1120.58V20.2207H1069.36V28.6191H1120.58V43.8047H1069.36V52.2031H1120.58V69.0488H1043.77ZM1134.2 68.9512V3.32617H1166.23L1191.82 36.1387L1217.46 3.32617H1249.44V68.9512H1223.85V33.9414L1198.22 68.9512H1185.42L1159.79 33.9414V68.9512H1134.2ZM1303.34 1.71484C1328.05 1.71484 1348.12 8.94141 1348.12 33.7461V38.5312C1348.22 63.3359 1328 70.5137 1303.34 70.5625C1278.64 70.5137 1258.42 63.3359 1258.52 38.5312V33.7461C1258.42 8.89258 1278.64 1.76367 1303.34 1.71484ZM1322.53 36.9199V35.3086C1322.68 24.6152 1313.79 22.6621 1303.34 22.5156C1292.85 22.6621 1283.96 24.6152 1284.11 35.3086V36.9199C1283.96 47.6621 1292.85 49.6152 1303.34 49.7617C1313.79 49.6152 1322.68 47.6621 1322.53 36.9199ZM1406.13 69.0488H1380.54V24.2246H1350.12V3.42383H1436.55V24.2246H1406.13V69.0488ZM1445.14 3.32617H1470.73V68.9512H1445.14V3.32617ZM1523.07 1.71484C1547.78 1.71484 1567.85 8.94141 1567.85 33.7461V38.5312C1567.94 63.3359 1547.73 70.5137 1523.07 70.5625C1498.36 70.5137 1478.15 63.3359 1478.25 38.5312V33.7461C1478.15 8.89258 1498.36 1.76367 1523.07 1.71484ZM1542.26 36.9199V35.3086C1542.41 24.6152 1533.52 22.6621 1523.07 22.5156C1512.57 22.6621 1503.69 24.6152 1503.83 35.3086V36.9199C1503.69 47.6621 1512.57 49.6152 1523.07 49.7617C1533.52 49.6152 1542.41 47.6621 1542.26 36.9199ZM1639.53 38.0918V3.32617H1665.16V68.9512H1636.35L1601.1 28.8633V68.9512H1575.51V3.32617H1610.72L1639.53 38.0918ZM1700.66 24.957C1700.66 27.8379 1708.62 28.2285 1718.92 28.7168C1737.23 29.6445 1762.96 30.9141 1762.91 47.3691C1762.91 66.1191 1741.43 70.5625 1718.38 70.5625C1695.38 70.5137 1676.29 67.7305 1673.85 47.3691H1700.66C1703.59 52.4473 1710.38 53.7656 1718.38 53.7656C1726.34 53.7656 1736.11 52.4473 1736.11 47.3691C1736.11 44.4883 1728.15 44.0488 1717.85 43.5605C1699.54 42.6328 1673.8 41.3633 1673.85 24.957C1673.85 6.20703 1695.34 1.71484 1718.38 1.71484C1741.38 1.86133 1760.47 4.44922 1762.91 24.957H1736.11C1733.18 19.7812 1726.39 18.5605 1718.38 18.5605C1710.42 18.5605 1700.66 19.7324 1700.66 24.957ZM1864.13 22.418L1855.1 41.8027H1873.12L1864.13 22.418ZM1813.7 69.0488L1848.9 3.42383H1879.32L1914.53 69.0488H1885.72L1880.54 57.8184H1847.68L1842.5 69.0488H1813.7ZM1916.53 3.375H1979.76C1993.29 3.22852 2004.76 14.6055 2004.56 28.1797C2004.56 33.1113 2003.25 37.6035 2000.61 41.6074C1998.02 45.5625 1994.55 48.5898 1990.26 50.5918L2004.56 69H1977.32L1964.96 52.9844H1942.11V69H1916.53V3.375ZM1973.31 22.5645H1942.11V33.7461H1973.31C1974.88 33.7461 1976.2 33.209 1977.27 32.1348C1978.39 31.0117 1978.93 29.6934 1978.93 28.1797C1978.93 25.0547 1976.44 22.5645 1973.31 22.5645ZM2073.95 41.7539H2100.17C2098.56 63.9219 2079.12 70.5625 2055.49 70.5625C2030.88 70.5137 2010.57 63.3848 2010.67 38.5312V33.7461C2010.57 8.94141 2030.88 1.8125 2055.49 1.71484C2079.12 1.76367 2098.56 8.4043 2100.17 30.5234H2073.95C2071.56 24.0781 2064.28 22.5645 2055.49 22.5645C2045.04 22.7109 2036.16 24.5664 2036.3 35.3574V36.9688C2036.16 47.6621 2045.04 49.6152 2055.49 49.7617C2064.28 49.7617 2071.61 48.1992 2073.95 41.7539ZM2171.85 46.5391H2133.42V68.9512H2107.84V3.32617H2133.42V25.7383H2171.85V3.32617H2197.48V68.9512H2171.85V46.5391ZM2212.43 3.32617H2238.01V68.9512H2212.43V3.32617ZM2268.77 3.42383L2288.79 48.9805L2308.81 3.42383H2337.62L2303.98 69.0488H2273.56L2239.96 3.42383H2268.77ZM2339.57 69.0488V3.42383H2416.38V20.2207H2365.16V28.6191H2416.38V43.8047H2365.16V52.2031H2416.38V69.0488H2339.57ZM2497.63 3.42383L2516.82 26.959L2536.06 3.42383H2566.43L2529.61 46.6367V69.0488H2504.03V46.6367L2467.21 3.42383H2497.63ZM2603.34 1.71484C2628.05 1.71484 2648.12 8.94141 2648.12 33.7461V38.5312C2648.22 63.3359 2628 70.5137 2603.34 70.5625C2578.64 70.5137 2558.42 63.3359 2558.52 38.5312V33.7461C2558.42 8.89258 2578.64 1.76367 2603.34 1.71484ZM2622.53 36.9199V35.3086C2622.68 24.6152 2613.79 22.6621 2603.34 22.5156C2592.85 22.6621 2583.96 24.6152 2584.11 35.3086V36.9199C2583.96 47.6621 2592.85 49.6152 2603.34 49.7617C2613.79 49.6152 2622.68 47.6621 2622.53 36.9199ZM2719.41 36.9688V3.32617H2745.04V38.5801C2745.14 63.3848 2724.83 70.5137 2700.22 70.5625C2675.61 70.5137 2655.3 63.3848 2655.39 38.5801V3.32617H2680.98V36.9688C2680.88 47.7598 2689.72 49.6152 2700.22 49.7617C2710.67 49.6152 2719.55 47.7598 2719.41 36.9688ZM2756.57 3.375H2819.8C2833.32 3.22852 2844.8 14.6055 2844.6 28.1797C2844.6 33.1113 2843.29 37.6035 2840.65 41.6074C2838.06 45.5625 2834.59 48.5898 2830.3 50.5918L2844.6 69H2817.36L2805 52.9844H2782.15V69H2756.57V3.375ZM2813.35 22.5645H2782.15V33.7461H2813.35C2814.92 33.7461 2816.23 33.209 2817.31 32.1348C2818.43 31.0117 2818.97 29.6934 2818.97 28.1797C2818.97 25.0547 2816.48 22.5645 2813.35 22.5645ZM2922.24 24.957C2922.24 27.8379 2930.2 28.2285 2940.5 28.7168C2958.81 29.6445 2984.54 30.9141 2984.5 47.3691C2984.5 66.1191 2963.01 70.5625 2939.96 70.5625C2916.97 70.5137 2897.88 67.7305 2895.43 47.3691H2922.24C2925.17 52.4473 2931.96 53.7656 2939.96 53.7656C2947.92 53.7656 2957.69 52.4473 2957.69 47.3691C2957.69 44.4883 2949.73 44.0488 2939.43 43.5605C2921.12 42.6328 2895.38 41.3633 2895.43 24.957C2895.43 6.20703 2916.92 1.71484 2939.96 1.71484C2962.96 1.86133 2982.05 4.44922 2984.5 24.957H2957.69C2954.76 19.7812 2947.97 18.5605 2939.96 18.5605C2932.01 18.5605 2922.24 19.7324 2922.24 24.957ZM2991.33 69.0488V3.42383H3068.14V20.2207H3016.92V28.6191H3068.14V43.8047H3016.92V52.2031H3068.14V69.0488H2991.33ZM3081.76 3.32617H3107.35V48.1504H3158.57V68.9512H3081.76V3.32617ZM3167.31 69.0488V3.42383H3247.34V24.2246H3192.89V32.2324H3240.94V51.4219H3192.89V69.0488H3167.31Z"/>
</mask>
<path d="M65.9902 36.9688L64.9901 36.9688L64.9903 36.9823L65.9902 36.9688ZM65.9902 3.32617V2.32617H64.9902V3.32617H65.9902ZM91.625 3.32617H92.625V2.32617H91.625V3.32617ZM91.625 38.5801L90.625 38.5801L90.625 38.584L91.625 38.5801ZM46.8008 70.5625L46.7988 71.5625L46.8028 71.5625L46.8008 70.5625ZM1.97656 38.5801L2.97656 38.584V38.5801H1.97656ZM1.97656 3.32617V2.32617H0.976562V3.32617H1.97656ZM27.5625 3.32617H28.5625V2.32617H27.5625V3.32617ZM27.5625 36.9688L28.5625 36.9778V36.9688H27.5625ZM46.8008 49.7617L46.7868 50.7616L46.8008 50.7618L46.8148 50.7616L46.8008 49.7617ZM65.9902 36.9688H66.9902V3.32617H65.9902H64.9902V36.9688H65.9902ZM65.9902 3.32617V4.32617H91.625V3.32617V2.32617H65.9902V3.32617ZM91.625 3.32617H90.625V38.5801H91.625H92.625V3.32617H91.625ZM91.625 38.5801L90.625 38.584C90.6725 50.6529 85.7871 58.2996 77.9632 62.9974C70.0535 67.7468 59.0418 69.5382 46.7988 69.5625L46.8008 70.5625L46.8028 71.5625C59.1691 71.538 70.6184 69.7405 78.9928 64.7121C87.4532 59.632 92.6751 51.3119 92.625 38.5761L91.625 38.5801ZM46.8008 70.5625L46.8028 69.5625C34.5597 69.5382 23.5481 67.7468 15.6383 62.9974C7.8145 58.2996 2.92904 50.6529 2.97655 38.584L1.97656 38.5801L0.97657 38.5761C0.926429 51.3119 6.14839 59.632 14.6088 64.7121C22.9832 69.7405 34.4325 71.538 46.7988 71.5625L46.8008 70.5625ZM1.97656 38.5801H2.97656V3.32617H1.97656H0.976562V38.5801H1.97656ZM1.97656 3.32617V4.32617H27.5625V3.32617V2.32617H1.97656V3.32617ZM27.5625 3.32617H26.5625V36.9688H27.5625H28.5625V3.32617H27.5625ZM27.5625 36.9688L26.5625 36.9597C26.5369 39.7951 27.0983 42.1193 28.1852 43.9999C29.2743 45.8844 30.8518 47.2554 32.7457 48.2435C36.4831 50.1935 41.5299 50.6883 46.7868 50.7616L46.8008 49.7617L46.8147 48.7618C41.5736 48.6887 36.9524 48.1825 33.6708 46.4703C32.0551 45.6274 30.7854 44.502 29.9168 42.9991C29.046 41.4923 28.5393 39.538 28.5625 36.9778L27.5625 36.9688ZM46.8008 49.7617L46.8148 50.7616C52.0476 50.6883 57.0942 50.1934 60.8315 48.2435C62.7252 47.2555 64.3033 45.8843 65.3896 43.9987C66.4737 42.1169 67.0286 39.7915 66.9901 36.9552L65.9902 36.9688L64.9903 36.9823C65.0251 39.5415 64.5241 41.4946 63.6566 43.0003C62.7913 44.5022 61.5221 45.6273 59.9063 46.4703C56.6246 48.1826 52.0032 48.6887 46.7868 48.7618L46.8008 49.7617ZM167.162 38.0918L166.392 38.7299L168.162 40.8658V38.0918H167.162ZM167.162 3.32617V2.32617H166.162V3.32617H167.162ZM192.797 3.32617H193.797V2.32617H192.797V3.32617ZM192.797 68.9512V69.9512H193.797V68.9512H192.797ZM163.988 68.9512L163.237 69.6116L163.536 69.9512H163.988V68.9512ZM128.734 28.8633L129.485 28.2029L127.734 26.2119V28.8633H128.734ZM128.734 68.9512V69.9512H129.734V68.9512H128.734ZM103.148 68.9512H102.148V69.9512H103.148V68.9512ZM103.148 3.32617V2.32617H102.148V3.32617H103.148ZM138.354 3.32617L139.124 2.68812L138.824 2.32617H138.354V3.32617ZM167.162 38.0918H168.162V3.32617H167.162H166.162V38.0918H167.162ZM167.162 3.32617V4.32617H192.797V3.32617V2.32617H167.162V3.32617ZM192.797 3.32617H191.797V68.9512H192.797H193.797V3.32617H192.797ZM192.797 68.9512V67.9512H163.988V68.9512V69.9512H192.797V68.9512ZM163.988 68.9512L164.739 68.2908L129.485 28.2029L128.734 28.8633L127.983 29.5237L163.237 69.6116L163.988 68.9512ZM128.734 28.8633H127.734V68.9512H128.734H129.734V28.8633H128.734ZM128.734 68.9512V67.9512H103.148V68.9512V69.9512H128.734V68.9512ZM103.148 68.9512H104.148V3.32617H103.148H102.148V68.9512H103.148ZM103.148 3.32617V4.32617H138.354V3.32617V2.32617H103.148V3.32617ZM138.354 3.32617L137.584 3.96423L166.392 38.7299L167.162 38.0918L167.932 37.4537L139.124 2.68812L138.354 3.32617ZM207.738 69.0488H206.738V70.0488H207.738V69.0488ZM207.738 3.42383V2.42383H206.738V3.42383H207.738ZM287.768 3.42383H288.768V2.42383H287.768V3.42383ZM287.768 24.2246V25.2246H288.768V24.2246H287.768ZM233.324 24.2246V23.2246H232.324V24.2246H233.324ZM233.324 32.2324H232.324V33.2324H233.324V32.2324ZM281.371 32.2324H282.371V31.2324H281.371V32.2324ZM281.371 51.4219V52.4219H282.371V51.4219H281.371ZM233.324 51.4219V50.4219H232.324V51.4219H233.324ZM233.324 69.0488V70.0488H234.324V69.0488H233.324ZM207.738 69.0488H208.738V3.42383H207.738H206.738V69.0488H207.738ZM207.738 3.42383V4.42383H287.768V3.42383V2.42383H207.738V3.42383ZM287.768 3.42383H286.768V24.2246H287.768H288.768V3.42383H287.768ZM287.768 24.2246V23.2246H233.324V24.2246V25.2246H287.768V24.2246ZM233.324 24.2246H232.324V32.2324H233.324H234.324V24.2246H233.324ZM233.324 32.2324V33.2324H281.371V32.2324V31.2324H233.324V32.2324ZM281.371 32.2324H280.371V51.4219H281.371H282.371V32.2324H281.371ZM281.371 51.4219V50.4219H233.324V51.4219V52.4219H281.371V51.4219ZM233.324 51.4219H232.324V69.0488H233.324H234.324V51.4219H233.324ZM233.324 69.0488V68.0488H207.738V69.0488V70.0488H233.324V69.0488ZM337.133 1.71484V0.714842L337.131 0.714846L337.133 1.71484ZM381.908 38.5312L380.908 38.5313L380.908 38.5352L381.908 38.5312ZM337.133 70.5625L337.131 71.5625L337.135 71.5625L337.133 70.5625ZM292.309 38.5312L293.309 38.5352V38.5312H292.309ZM292.309 33.7461L293.309 33.7461L293.309 33.7422L292.309 33.7461ZM356.322 36.9199L355.322 36.9199L355.322 36.9336L356.322 36.9199ZM356.322 35.3086L355.322 35.2949V35.3086H356.322ZM337.133 22.5156L337.147 21.5157L337.133 21.5155L337.119 21.5157L337.133 22.5156ZM317.895 35.3086L318.895 35.3086L318.894 35.2949L317.895 35.3086ZM317.895 36.9199L318.895 36.9336V36.9199H317.895ZM337.133 49.7617L337.119 50.7616L337.133 50.7618L337.147 50.7616L337.133 49.7617ZM337.133 1.71484V2.71484C349.423 2.71484 360.396 4.51846 368.268 9.28415C376.055 13.9987 380.908 21.6708 380.908 33.7461H381.908H382.908C382.908 21.0167 377.727 12.6732 369.304 7.57327C360.964 2.52451 349.55 0.714844 337.133 0.714844V1.71484ZM381.908 33.7461H380.908V38.5312H381.908H382.908V33.7461H381.908ZM381.908 38.5312L380.908 38.5352C380.956 50.6063 376.093 58.2651 368.287 62.9741C360.396 67.7347 349.398 69.5382 337.131 69.5625L337.133 70.5625L337.135 71.5625C349.526 71.538 360.964 69.7282 369.321 64.6866C377.763 59.5933 382.958 51.2608 382.908 38.5273L381.908 38.5312ZM337.133 70.5625L337.135 69.5625C324.843 69.5382 313.832 67.7347 305.935 62.9739C298.124 58.2649 293.261 50.6063 293.309 38.5352L292.309 38.5312L291.309 38.5273C291.258 51.2609 296.454 59.5935 304.903 64.6867C313.265 69.7282 324.715 71.538 337.131 71.5625L337.133 70.5625ZM292.309 38.5312H293.309V33.7461H292.309H291.309V38.5312H292.309ZM292.309 33.7461L293.309 33.7422C293.261 21.6461 298.124 13.988 305.935 9.28541C313.832 4.53074 324.842 2.73914 337.135 2.71484L337.133 1.71484L337.131 0.714846C324.716 0.73938 313.266 2.53665 304.903 7.57201C296.454 12.6595 291.258 20.9926 291.309 33.75L292.309 33.7461ZM356.322 36.9199H357.322V35.3086H356.322H355.322V36.9199H356.322ZM356.322 35.3086L357.322 35.3223C357.361 32.5087 356.805 30.1954 355.721 28.3188C354.635 26.4391 353.058 25.0656 351.166 24.0717C347.429 22.1092 342.384 21.5891 337.147 21.5157L337.133 22.5156L337.119 23.5155C342.331 23.5886 346.953 24.1183 350.236 25.8423C351.853 26.6917 353.124 27.8207 353.989 29.3192C354.857 30.821 355.357 32.7618 355.322 35.2949L356.322 35.3086ZM337.133 22.5156L337.119 21.5157C331.858 21.5891 326.8 22.1091 323.058 24.0714C321.162 25.0652 319.584 26.4386 318.497 28.3185C317.412 30.1953 316.856 32.5087 316.895 35.3223L317.895 35.3086L318.894 35.2949C318.86 32.7618 319.36 30.8211 320.228 29.3195C321.094 27.8211 322.366 26.6922 323.986 25.8427C327.275 24.1184 331.91 23.5886 337.147 23.5155L337.133 22.5156ZM317.895 35.3086H316.895V36.9199H317.895H318.895V35.3086H317.895ZM317.895 36.9199L316.895 36.9063C316.856 39.7313 317.411 42.0534 318.496 43.9367C319.582 45.8234 321.161 47.2019 323.056 48.1992C326.8 50.1683 331.858 50.6882 337.119 50.7616L337.133 49.7617L337.147 48.7618C331.91 48.6887 327.276 48.1589 323.988 46.4292C322.368 45.5771 321.096 44.444 320.229 42.9387C319.36 41.43 318.86 39.4796 318.894 36.9336L317.895 36.9199ZM337.133 49.7617L337.147 50.7616C342.384 50.6882 347.43 50.1682 351.167 48.1989C353.06 47.2015 354.636 45.823 355.722 43.9364C356.805 42.0532 357.361 39.7313 357.322 36.9063L356.322 36.9199L355.322 36.9336C355.357 39.4796 354.856 41.4302 353.988 42.939C353.122 44.4445 351.852 45.5775 350.235 46.4295C346.953 48.1589 342.331 48.6888 337.119 48.7618L337.133 49.7617ZM389.574 3.32617V2.32617H388.574V3.32617H389.574ZM415.16 3.32617H416.16V2.32617H415.16V3.32617ZM415.16 48.1504H414.16V49.1504H415.16V48.1504ZM466.381 48.1504H467.381V47.1504H466.381V48.1504ZM466.381 68.9512V69.9512H467.381V68.9512H466.381ZM389.574 68.9512H388.574V69.9512H389.574V68.9512ZM389.574 3.32617V4.32617H415.16V3.32617V2.32617H389.574V3.32617ZM415.16 3.32617H414.16V48.1504H415.16H416.16V3.32617H415.16ZM415.16 48.1504V49.1504H466.381V48.1504V47.1504H415.16V48.1504ZM466.381 48.1504H465.381V68.9512H466.381H467.381V48.1504H466.381ZM466.381 68.9512V67.9512H389.574V68.9512V69.9512H466.381V68.9512ZM389.574 68.9512H390.574V3.32617H389.574H388.574V68.9512H389.574ZM500.707 24.2246V23.2246H499.707V24.2246H500.707ZM500.707 48.248H499.707V49.248H500.707V48.248ZM475.121 3.42383V2.42383H474.121V3.42383H475.121ZM533.52 3.42383V4.42392L533.533 4.42374L533.52 3.42383ZM564.77 36.2363L563.77 36.2282L563.769 36.2364L563.77 36.2445L564.77 36.2363ZM533.52 69.0488L533.533 68.0488H533.52V69.0488ZM475.121 69.0488H474.121V70.0488H475.121V69.0488ZM539.135 36.2363H540.135C540.135 32.737 539.145 29.4959 537.2 27.1087C535.238 24.6998 532.352 23.2246 528.734 23.2246V24.2246V25.2246C531.758 25.2246 534.072 26.4349 535.649 28.3718C537.245 30.3303 538.135 33.095 538.135 36.2363H539.135ZM528.734 24.2246V23.2246H500.707V24.2246V25.2246H528.734V24.2246ZM500.707 24.2246H499.707V48.248H500.707H501.707V24.2246H500.707ZM500.707 48.248V49.248H528.734V48.248V47.248H500.707V48.248ZM528.734 48.248V49.248C532.355 49.248 535.24 47.7582 537.201 45.3446C539.144 42.9526 540.135 39.7126 540.135 36.2363H539.135H538.135C538.135 39.3519 537.246 42.1177 535.649 44.0836C534.069 46.0279 531.755 47.248 528.734 47.248V48.248ZM475.121 3.42383V4.42383H533.52V3.42383V2.42383H475.121V3.42383ZM533.52 3.42383L533.533 4.42374C550.918 4.18817 563.912 18.7942 563.77 36.2282L564.77 36.2363L565.769 36.2445C565.92 17.8386 552.156 2.1712 533.506 2.42392L533.52 3.42383ZM564.77 36.2363L563.77 36.2445C563.912 53.5828 550.916 68.2845 533.533 68.0489L533.52 69.0488L533.506 70.0487C552.158 70.3015 565.92 54.5344 565.769 36.2281L564.77 36.2363ZM533.52 69.0488V68.0488H475.121V69.0488V70.0488H533.52V69.0488ZM475.121 69.0488H476.121V3.42383H475.121H474.121V69.0488H475.121ZM645.971 3.42383L646.746 2.7919L646.446 2.42383H645.971V3.42383ZM665.16 26.959L664.385 27.5909L665.159 28.5402L665.934 27.5919L665.16 26.959ZM684.398 3.42383V2.42383H683.924L683.624 2.79094L684.398 3.42383ZM714.77 3.42383L715.531 4.07235L716.935 2.42383H714.77V3.42383ZM677.953 46.6367L677.192 45.9882L676.953 46.2685V46.6367H677.953ZM677.953 69.0488V70.0488H678.953V69.0488H677.953ZM652.367 69.0488H651.367V70.0488H652.367V69.0488ZM652.367 46.6367H653.367V46.2685L653.128 45.9882L652.367 46.6367ZM615.551 3.42383V2.42383H613.385L614.79 4.07235L615.551 3.42383ZM645.971 3.42383L645.196 4.05575L664.385 27.5909L665.16 26.959L665.935 26.3271L646.746 2.7919L645.971 3.42383ZM665.16 26.959L665.934 27.5919L685.173 4.05672L684.398 3.42383L683.624 2.79094L664.386 26.3261L665.16 26.959ZM684.398 3.42383V4.42383H714.77V3.42383V2.42383H684.398V3.42383ZM714.77 3.42383L714.008 2.77531L677.192 45.9882L677.953 46.6367L678.714 47.2852L715.531 4.07235L714.77 3.42383ZM677.953 46.6367H676.953V69.0488H677.953H678.953V46.6367H677.953ZM677.953 69.0488V68.0488H652.367V69.0488V70.0488H677.953V69.0488ZM652.367 69.0488H653.367V46.6367H652.367H651.367V69.0488H652.367ZM652.367 46.6367L653.128 45.9882L616.312 2.77531L615.551 3.42383L614.79 4.07235L651.606 47.2852L652.367 46.6367ZM615.551 3.42383V4.42383H645.971V3.42383V2.42383H615.551V3.42383ZM751.684 1.71484V0.714842L751.682 0.714846L751.684 1.71484ZM796.459 38.5312L795.459 38.5313L795.459 38.5352L796.459 38.5312ZM751.684 70.5625L751.682 71.5625L751.686 71.5625L751.684 70.5625ZM706.859 38.5312L707.859 38.5352V38.5312H706.859ZM706.859 33.7461L707.859 33.7461L707.859 33.7422L706.859 33.7461ZM770.873 36.9199L769.873 36.9199L769.873 36.9336L770.873 36.9199ZM770.873 35.3086L769.873 35.2949V35.3086H770.873ZM751.684 22.5156L751.698 21.5157L751.684 21.5155L751.67 21.5157L751.684 22.5156ZM732.445 35.3086L733.445 35.3086L733.445 35.2949L732.445 35.3086ZM732.445 36.9199L733.445 36.9336V36.9199H732.445ZM751.684 49.7617L751.67 50.7616L751.684 50.7618L751.698 50.7616L751.684 49.7617ZM751.684 1.71484V2.71484C763.974 2.71484 774.947 4.51846 782.819 9.28415C790.606 13.9987 795.459 21.6708 795.459 33.7461H796.459H797.459C797.459 21.0167 792.278 12.6732 783.854 7.57327C775.515 2.52451 764.1 0.714844 751.684 0.714844V1.71484ZM796.459 33.7461H795.459V38.5312H796.459H797.459V33.7461H796.459ZM796.459 38.5312L795.459 38.5352C795.507 50.6063 790.643 58.2651 782.838 62.9741C774.947 67.7347 763.949 69.5382 751.682 69.5625L751.684 70.5625L751.686 71.5625C764.077 71.538 775.515 69.7282 783.871 64.6866C792.314 59.5933 797.509 51.2608 797.459 38.5273L796.459 38.5312ZM751.684 70.5625L751.686 69.5625C739.394 69.5382 728.383 67.7347 720.486 62.9739C712.675 58.2649 707.812 50.6063 707.859 38.5352L706.859 38.5312L705.859 38.5273C705.809 51.2609 711.005 59.5935 719.453 64.6867C727.816 69.7282 739.266 71.538 751.682 71.5625L751.684 70.5625ZM706.859 38.5312H707.859V33.7461H706.859H705.859V38.5312H706.859ZM706.859 33.7461L707.859 33.7422C707.812 21.6461 712.675 13.988 720.486 9.28541C728.382 4.53074 739.393 2.73914 751.686 2.71484L751.684 1.71484L751.682 0.714846C739.267 0.73938 727.817 2.53665 719.454 7.57201C711.004 12.6595 705.809 20.9926 705.859 33.75L706.859 33.7461ZM770.873 36.9199H771.873V35.3086H770.873H769.873V36.9199H770.873ZM770.873 35.3086L771.873 35.3223C771.911 32.5087 771.356 30.1954 770.272 28.3188C769.186 26.4391 767.609 25.0656 765.717 24.0717C761.98 22.1092 756.935 21.5891 751.698 21.5157L751.684 22.5156L751.67 23.5155C756.881 23.5886 761.504 24.1183 764.787 25.8423C766.404 26.6917 767.674 27.8207 768.54 29.3192C769.408 30.821 769.908 32.7618 769.873 35.2949L770.873 35.3086ZM751.684 22.5156L751.67 21.5157C746.408 21.5891 741.351 22.1091 737.608 24.0714C735.713 25.0652 734.134 26.4386 733.047 28.3185C731.962 30.1953 731.407 32.5087 731.445 35.3223L732.445 35.3086L733.445 35.2949C733.411 32.7618 733.911 30.8211 734.779 29.3195C735.645 27.8211 736.917 26.6922 738.537 25.8427C741.826 24.1184 746.461 23.5886 751.698 23.5155L751.684 22.5156ZM732.445 35.3086H731.445V36.9199H732.445H733.445V35.3086H732.445ZM732.445 36.9199L731.445 36.9063C731.407 39.7313 731.962 42.0534 733.047 43.9367C734.133 45.8234 735.711 47.2019 737.607 48.1992C741.35 50.1683 746.408 50.6882 751.67 50.7616L751.684 49.7617L751.698 48.7618C746.461 48.6887 741.826 48.1589 738.538 46.4292C736.919 45.5771 735.647 44.444 734.78 42.9387C733.911 41.43 733.411 39.4796 733.445 36.9336L732.445 36.9199ZM751.684 49.7617L751.698 50.7616C756.935 50.6882 761.981 50.1682 765.718 48.1989C767.611 47.2015 769.187 45.823 770.273 43.9364C771.356 42.0532 771.911 39.7313 771.873 36.9063L770.873 36.9199L769.873 36.9336C769.908 39.4796 769.407 41.4302 768.539 42.939C767.673 44.4445 766.402 45.5775 764.786 46.4295C761.504 48.1589 756.882 48.6888 751.67 48.7618L751.684 49.7617ZM867.748 36.9688L866.748 36.9688L866.748 36.9823L867.748 36.9688ZM867.748 3.32617V2.32617H866.748V3.32617H867.748ZM893.383 3.32617H894.383V2.32617H893.383V3.32617ZM893.383 38.5801L892.383 38.5801L892.383 38.584L893.383 38.5801ZM848.559 70.5625L848.557 71.5625L848.561 71.5625L848.559 70.5625ZM803.734 38.5801L804.734 38.584V38.5801H803.734ZM803.734 3.32617V2.32617H802.734V3.32617H803.734ZM829.32 3.32617H830.32V2.32617H829.32V3.32617ZM829.32 36.9688L830.32 36.9778V36.9688H829.32ZM848.559 49.7617L848.545 50.7616L848.559 50.7618L848.573 50.7616L848.559 49.7617ZM867.748 36.9688H868.748V3.32617H867.748H866.748V36.9688H867.748ZM867.748 3.32617V4.32617H893.383V3.32617V2.32617H867.748V3.32617ZM893.383 3.32617H892.383V38.5801H893.383H894.383V3.32617H893.383ZM893.383 38.5801L892.383 38.584C892.43 50.6529 887.545 58.2996 879.721 62.9974C871.811 67.7468 860.8 69.5382 848.557 69.5625L848.559 70.5625L848.561 71.5625C860.927 71.538 872.376 69.7405 880.751 64.7121C889.211 59.632 894.433 51.3119 894.383 38.5761L893.383 38.5801ZM848.559 70.5625L848.561 69.5625C836.318 69.5382 825.306 67.7468 817.396 62.9974C809.572 58.2996 804.687 50.6529 804.734 38.584L803.734 38.5801L802.734 38.5761C802.684 51.3119 807.906 59.632 816.367 64.7121C824.741 69.7405 836.19 71.538 848.557 71.5625L848.559 70.5625ZM803.734 38.5801H804.734V3.32617H803.734H802.734V38.5801H803.734ZM803.734 3.32617V4.32617H829.32V3.32617V2.32617H803.734V3.32617ZM829.32 3.32617H828.32V36.9688H829.32H830.32V3.32617H829.32ZM829.32 36.9688L828.32 36.9597C828.295 39.7951 828.856 42.1193 829.943 43.9999C831.032 45.8844 832.61 47.2554 834.503 48.2435C838.241 50.1935 843.288 50.6883 848.545 50.7616L848.559 49.7617L848.573 48.7618C843.331 48.6887 838.71 48.1825 835.429 46.4703C833.813 45.6274 832.543 44.502 831.675 42.9991C830.804 41.4923 830.297 39.538 830.32 36.9778L829.32 36.9688ZM848.559 49.7617L848.573 50.7616C853.805 50.6883 858.852 50.1934 862.589 48.2435C864.483 47.2555 866.061 45.8843 867.147 43.9987C868.232 42.1169 868.786 39.7915 868.748 36.9552L867.748 36.9688L866.748 36.9823C866.783 39.5415 866.282 41.4946 865.414 43.0003C864.549 44.5022 863.28 45.6273 861.664 46.4703C858.382 48.1826 853.761 48.6887 848.545 48.7618L848.559 49.7617ZM904.906 3.375V2.375H903.906V3.375H904.906ZM968.139 3.375V4.37506L968.15 4.37494L968.139 3.375ZM992.943 28.1797L991.943 28.1653L991.943 28.1725V28.1797H992.943ZM988.988 41.6074L988.153 41.0574L988.151 41.0599L988.988 41.6074ZM978.637 50.5918L978.214 49.6854L977.077 50.2151L977.847 51.2054L978.637 50.5918ZM992.943 69V70H994.987L993.733 68.3863L992.943 69ZM965.697 69L964.905 69.6108L965.206 70H965.697V69ZM953.344 52.9844L954.136 52.3736L953.835 51.9844H953.344V52.9844ZM930.492 52.9844V51.9844H929.492V52.9844H930.492ZM930.492 69V70H931.492V69H930.492ZM904.906 69H903.906V70H904.906V69ZM930.492 22.5645V21.5645H929.492V22.5645H930.492ZM930.492 33.7461H929.492V34.7461H930.492V33.7461ZM904.906 3.375V4.375H968.139V3.375V2.375H904.906V3.375ZM968.139 3.375L968.15 4.37494C981.119 4.23448 992.131 15.1591 991.943 28.1653L992.943 28.1797L993.943 28.1941C994.147 14.0518 982.209 2.22255 968.128 2.37506L968.139 3.375ZM992.943 28.1797H991.943C991.943 32.9228 990.679 37.2225 988.153 41.0574L988.988 41.6074L989.823 42.1574C992.571 37.9845 993.943 33.2998 993.943 28.1797H992.943ZM988.988 41.6074L988.151 41.0599C985.664 44.8612 982.34 47.7632 978.214 49.6854L978.637 50.5918L979.059 51.4982C983.527 49.4165 987.137 46.2638 989.825 42.1549L988.988 41.6074ZM978.637 50.5918L977.847 51.2054L992.154 69.6137L992.943 69L993.733 68.3863L979.426 49.9781L978.637 50.5918ZM992.943 69V68H965.697V69V70H992.943V69ZM965.697 69L966.489 68.3892L954.136 52.3736L953.344 52.9844L952.552 53.5951L964.905 69.6108L965.697 69ZM953.344 52.9844V51.9844H930.492V52.9844V53.9844H953.344V52.9844ZM930.492 52.9844H929.492V69H930.492H931.492V52.9844H930.492ZM930.492 69V68H904.906V69V70H930.492V69ZM904.906 69H905.906V3.375H904.906H903.906V69H904.906ZM961.693 22.5645V21.5645H930.492V22.5645V23.5645H961.693V22.5645ZM930.492 22.5645H929.492V33.7461H930.492H931.492V22.5645H930.492ZM930.492 33.7461V34.7461H961.693V33.7461V32.7461H930.492V33.7461ZM961.693 33.7461V34.7461C963.513 34.7461 965.088 34.1095 966.356 32.8419L965.648 32.1348L964.941 31.4277C964.061 32.3084 962.999 32.7461 961.693 32.7461V33.7461ZM965.648 32.1348L966.356 32.8419C967.664 31.5334 968.309 29.9616 968.309 28.1797H967.309H966.309C966.309 29.4251 965.879 30.49 964.941 31.4277L965.648 32.1348ZM967.309 28.1797H968.309C968.309 24.5024 965.371 21.5645 961.693 21.5645V22.5645V23.5645C964.266 23.5645 966.309 25.607 966.309 28.1797H967.309ZM1043.77 69.0488H1042.77V70.0488H1043.77V69.0488ZM1043.77 3.42383V2.42383H1042.77V3.42383H1043.77ZM1120.58 3.42383H1121.58V2.42383H1120.58V3.42383ZM1120.58 20.2207V21.2207H1121.58V20.2207H1120.58ZM1069.36 20.2207V19.2207H1068.36V20.2207H1069.36ZM1069.36 28.6191H1068.36V29.6191H1069.36V28.6191ZM1120.58 28.6191H1121.58V27.6191H1120.58V28.6191ZM1120.58 43.8047V44.8047H1121.58V43.8047H1120.58ZM1069.36 43.8047V42.8047H1068.36V43.8047H1069.36ZM1069.36 52.2031H1068.36V53.2031H1069.36V52.2031ZM1120.58 52.2031H1121.58V51.2031H1120.58V52.2031ZM1120.58 69.0488V70.0488H1121.58V69.0488H1120.58ZM1043.77 69.0488H1044.77V3.42383H1043.77H1042.77V69.0488H1043.77ZM1043.77 3.42383V4.42383H1120.58V3.42383V2.42383H1043.77V3.42383ZM1120.58 3.42383H1119.58V20.2207H1120.58H1121.58V3.42383H1120.58ZM1120.58 20.2207V19.2207H1069.36V20.2207V21.2207H1120.58V20.2207ZM1069.36 20.2207H1068.36V28.6191H1069.36H1070.36V20.2207H1069.36ZM1069.36 28.6191V29.6191H1120.58V28.6191V27.6191H1069.36V28.6191ZM1120.58 28.6191H1119.58V43.8047H1120.58H1121.58V28.6191H1120.58ZM1120.58 43.8047V42.8047H1069.36V43.8047V44.8047H1120.58V43.8047ZM1069.36 43.8047H1068.36V52.2031H1069.36H1070.36V43.8047H1069.36ZM1069.36 52.2031V53.2031H1120.58V52.2031V51.2031H1069.36V52.2031ZM1120.58 52.2031H1119.58V69.0488H1120.58H1121.58V52.2031H1120.58ZM1120.58 69.0488V68.0488H1043.77V69.0488V70.0488H1120.58V69.0488ZM1134.2 68.9512H1133.2V69.9512H1134.2V68.9512ZM1134.2 3.32617V2.32617H1133.2V3.32617H1134.2ZM1166.23 3.32617L1167.02 2.71126L1166.72 2.32617H1166.23V3.32617ZM1191.82 36.1387L1191.03 36.7536L1191.82 37.7639L1192.61 36.7543L1191.82 36.1387ZM1217.46 3.32617V2.32617H1216.97L1216.67 2.71053L1217.46 3.32617ZM1249.44 3.32617H1250.44V2.32617H1249.44V3.32617ZM1249.44 68.9512V69.9512H1250.44V68.9512H1249.44ZM1223.85 68.9512H1222.85V69.9512H1223.85V68.9512ZM1223.85 33.9414H1224.85V30.883L1223.04 33.3506L1223.85 33.9414ZM1198.22 68.9512V69.9512H1198.72L1199.02 69.5419L1198.22 68.9512ZM1185.42 68.9512L1184.62 69.5419L1184.92 69.9512H1185.42V68.9512ZM1159.79 33.9414L1160.6 33.3506L1158.79 30.883V33.9414H1159.79ZM1159.79 68.9512V69.9512H1160.79V68.9512H1159.79ZM1134.2 68.9512H1135.2V3.32617H1134.2H1133.2V68.9512H1134.2ZM1134.2 3.32617V4.32617H1166.23V3.32617V2.32617H1134.2V3.32617ZM1166.23 3.32617L1165.45 3.94109L1191.03 36.7536L1191.82 36.1387L1192.61 35.5238L1167.02 2.71126L1166.23 3.32617ZM1191.82 36.1387L1192.61 36.7543L1218.24 3.94182L1217.46 3.32617L1216.67 2.71053L1191.03 35.523L1191.82 36.1387ZM1217.46 3.32617V4.32617H1249.44V3.32617V2.32617H1217.46V3.32617ZM1249.44 3.32617H1248.44V68.9512H1249.44H1250.44V3.32617H1249.44ZM1249.44 68.9512V67.9512H1223.85V68.9512V69.9512H1249.44V68.9512ZM1223.85 68.9512H1224.85V33.9414H1223.85H1222.85V68.9512H1223.85ZM1223.85 33.9414L1223.04 33.3506L1197.41 68.3604L1198.22 68.9512L1199.02 69.5419L1224.66 34.5322L1223.85 33.9414ZM1198.22 68.9512V67.9512H1185.42V68.9512V69.9512H1198.22V68.9512ZM1185.42 68.9512L1186.23 68.3604L1160.6 33.3506L1159.79 33.9414L1158.98 34.5322L1184.62 69.5419L1185.42 68.9512ZM1159.79 33.9414H1158.79V68.9512H1159.79H1160.79V33.9414H1159.79ZM1159.79 68.9512V67.9512H1134.2V68.9512V69.9512H1159.79V68.9512ZM1303.34 1.71484V0.714842L1303.34 0.714846L1303.34 1.71484ZM1348.12 38.5312L1347.12 38.5313L1347.12 38.5352L1348.12 38.5312ZM1303.34 70.5625L1303.34 71.5625L1303.35 71.5625L1303.34 70.5625ZM1258.52 38.5312L1259.52 38.5352V38.5312H1258.52ZM1258.52 33.7461L1259.52 33.7461L1259.52 33.7422L1258.52 33.7461ZM1322.53 36.9199L1321.53 36.9199L1321.53 36.9336L1322.53 36.9199ZM1322.53 35.3086L1321.53 35.2949V35.3086H1322.53ZM1303.34 22.5156L1303.36 21.5157L1303.34 21.5155L1303.33 21.5157L1303.34 22.5156ZM1284.11 35.3086L1285.11 35.3086L1285.11 35.2949L1284.11 35.3086ZM1284.11 36.9199L1285.11 36.9336V36.9199H1284.11ZM1303.34 49.7617L1303.33 50.7616L1303.34 50.7618L1303.36 50.7616L1303.34 49.7617ZM1303.34 1.71484V2.71484C1315.63 2.71484 1326.61 4.51846 1334.48 9.28415C1342.27 13.9987 1347.12 21.6708 1347.12 33.7461H1348.12H1349.12C1349.12 21.0167 1343.94 12.6732 1335.51 7.57327C1327.18 2.52451 1315.76 0.714844 1303.34 0.714844V1.71484ZM1348.12 33.7461H1347.12V38.5312H1348.12H1349.12V33.7461H1348.12ZM1348.12 38.5312L1347.12 38.5352C1347.17 50.6063 1342.3 58.2651 1334.5 62.9741C1326.61 67.7347 1315.61 69.5382 1303.34 69.5625L1303.34 70.5625L1303.35 71.5625C1315.74 71.538 1327.17 69.7282 1335.53 64.6866C1343.97 59.5933 1349.17 51.2608 1349.12 38.5273L1348.12 38.5312ZM1303.34 70.5625L1303.35 69.5625C1291.05 69.5382 1280.04 67.7347 1272.15 62.9739C1264.33 58.2649 1259.47 50.6063 1259.52 38.5352L1258.52 38.5312L1257.52 38.5273C1257.47 51.2609 1262.67 59.5935 1271.11 64.6867C1279.48 69.7282 1290.93 71.538 1303.34 71.5625L1303.34 70.5625ZM1258.52 38.5312H1259.52V33.7461H1258.52H1257.52V38.5312H1258.52ZM1258.52 33.7461L1259.52 33.7422C1259.47 21.6461 1264.34 13.988 1272.15 9.28541C1280.04 4.53074 1291.05 2.73914 1303.35 2.71484L1303.34 1.71484L1303.34 0.714846C1290.93 0.73938 1279.48 2.53665 1271.11 7.57201C1262.66 12.6595 1257.47 20.9926 1257.52 33.75L1258.52 33.7461ZM1322.53 36.9199H1323.53V35.3086H1322.53H1321.53V36.9199H1322.53ZM1322.53 35.3086L1323.53 35.3223C1323.57 32.5087 1323.02 30.1954 1321.93 28.3188C1320.85 26.4391 1319.27 25.0656 1317.38 24.0717C1313.64 22.1092 1308.6 21.5891 1303.36 21.5157L1303.34 22.5156L1303.33 23.5155C1308.54 23.5886 1313.16 24.1183 1316.45 25.8423C1318.06 26.6917 1319.33 27.8207 1320.2 29.3192C1321.07 30.821 1321.57 32.7618 1321.53 35.2949L1322.53 35.3086ZM1303.34 22.5156L1303.33 21.5157C1298.07 21.5891 1293.01 22.1091 1289.27 24.0714C1287.37 25.0652 1285.79 26.4386 1284.71 28.3185C1283.62 30.1953 1283.07 32.5087 1283.11 35.3223L1284.11 35.3086L1285.11 35.2949C1285.07 32.7618 1285.57 30.8211 1286.44 29.3195C1287.31 27.8211 1288.58 26.6922 1290.2 25.8427C1293.49 24.1184 1298.12 23.5886 1303.36 23.5155L1303.34 22.5156ZM1284.11 35.3086H1283.11V36.9199H1284.11H1285.11V35.3086H1284.11ZM1284.11 36.9199L1283.11 36.9063C1283.07 39.7313 1283.62 42.0534 1284.71 43.9367C1285.79 45.8234 1287.37 47.2019 1289.27 48.1992C1293.01 50.1683 1298.07 50.6882 1303.33 50.7616L1303.34 49.7617L1303.36 48.7618C1298.12 48.6887 1293.49 48.1589 1290.2 46.4292C1288.58 45.5771 1287.31 44.444 1286.44 42.9387C1285.57 41.43 1285.07 39.4796 1285.11 36.9336L1284.11 36.9199ZM1303.34 49.7617L1303.36 50.7616C1308.59 50.6882 1313.64 50.1682 1317.38 48.1989C1319.27 47.2015 1320.85 45.823 1321.93 43.9364C1323.02 42.0532 1323.57 39.7313 1323.53 36.9063L1322.53 36.9199L1321.53 36.9336C1321.57 39.4796 1321.07 41.4302 1320.2 42.939C1319.33 44.4445 1318.06 45.5775 1316.45 46.4295C1313.16 48.1589 1308.54 48.6888 1303.33 48.7618L1303.34 49.7617ZM1406.13 69.0488V70.0488H1407.13V69.0488H1406.13ZM1380.54 69.0488H1379.54V70.0488H1380.54V69.0488ZM1380.54 24.2246H1381.54V23.2246H1380.54V24.2246ZM1350.12 24.2246H1349.12V25.2246H1350.12V24.2246ZM1350.12 3.42383V2.42383H1349.12V3.42383H1350.12ZM1436.55 3.42383H1437.55V2.42383H1436.55V3.42383ZM1436.55 24.2246V25.2246H1437.55V24.2246H1436.55ZM1406.13 24.2246V23.2246H1405.13V24.2246H1406.13ZM1406.13 69.0488V68.0488H1380.54V69.0488V70.0488H1406.13V69.0488ZM1380.54 69.0488H1381.54V24.2246H1380.54H1379.54V69.0488H1380.54ZM1380.54 24.2246V23.2246H1350.12V24.2246V25.2246H1380.54V24.2246ZM1350.12 24.2246H1351.12V3.42383H1350.12H1349.12V24.2246H1350.12ZM1350.12 3.42383V4.42383H1436.55V3.42383V2.42383H1350.12V3.42383ZM1436.55 3.42383H1435.55V24.2246H1436.55H1437.55V3.42383H1436.55ZM1436.55 24.2246V23.2246H1406.13V24.2246V25.2246H1436.55V24.2246ZM1406.13 24.2246H1405.13V69.0488H1406.13H1407.13V24.2246H1406.13ZM1445.14 3.32617V2.32617H1444.14V3.32617H1445.14ZM1470.73 3.32617H1471.73V2.32617H1470.73V3.32617ZM1470.73 68.9512V69.9512H1471.73V68.9512H1470.73ZM1445.14 68.9512H1444.14V69.9512H1445.14V68.9512ZM1445.14 3.32617V4.32617H1470.73V3.32617V2.32617H1445.14V3.32617ZM1470.73 3.32617H1469.73V68.9512H1470.73H1471.73V3.32617H1470.73ZM1470.73 68.9512V67.9512H1445.14V68.9512V69.9512H1470.73V68.9512ZM1445.14 68.9512H1446.14V3.32617H1445.14H1444.14V68.9512H1445.14ZM1523.07 1.71484V0.714842L1523.07 0.714846L1523.07 1.71484ZM1567.85 38.5312L1566.85 38.5313L1566.85 38.5352L1567.85 38.5312ZM1523.07 70.5625L1523.07 71.5625L1523.07 71.5625L1523.07 70.5625ZM1478.25 38.5312L1479.25 38.5352V38.5312H1478.25ZM1478.25 33.7461L1479.25 33.7461L1479.25 33.7422L1478.25 33.7461ZM1542.26 36.9199L1541.26 36.9199L1541.26 36.9336L1542.26 36.9199ZM1542.26 35.3086L1541.26 35.2949V35.3086H1542.26ZM1523.07 22.5156L1523.08 21.5157L1523.07 21.5155L1523.06 21.5157L1523.07 22.5156ZM1503.83 35.3086L1504.83 35.3086L1504.83 35.2949L1503.83 35.3086ZM1503.83 36.9199L1504.83 36.9336V36.9199H1503.83ZM1523.07 49.7617L1523.06 50.7616L1523.07 50.7618L1523.08 50.7616L1523.07 49.7617ZM1523.07 1.71484V2.71484C1535.36 2.71484 1546.33 4.51846 1554.21 9.28415C1561.99 13.9987 1566.85 21.6708 1566.85 33.7461H1567.85H1568.85C1568.85 21.0167 1563.66 12.6732 1555.24 7.57327C1546.9 2.52451 1535.49 0.714844 1523.07 0.714844V1.71484ZM1567.85 33.7461H1566.85V38.5312H1567.85H1568.85V33.7461H1567.85ZM1567.85 38.5312L1566.85 38.5352C1566.89 50.6063 1562.03 58.2651 1554.22 62.9741C1546.33 67.7347 1535.34 69.5382 1523.07 69.5625L1523.07 70.5625L1523.07 71.5625C1535.46 71.538 1546.9 69.7282 1555.26 64.6866C1563.7 59.5933 1568.9 51.2608 1568.85 38.5273L1567.85 38.5312ZM1523.07 70.5625L1523.07 69.5625C1510.78 69.5382 1499.77 67.7347 1491.87 62.9739C1484.06 58.2649 1479.2 50.6063 1479.25 38.5352L1478.25 38.5312L1477.25 38.5273C1477.2 51.2609 1482.39 59.5935 1490.84 64.6867C1499.2 69.7282 1510.65 71.538 1523.07 71.5625L1523.07 70.5625ZM1478.25 38.5312H1479.25V33.7461H1478.25H1477.25V38.5312H1478.25ZM1478.25 33.7461L1479.25 33.7422C1479.2 21.6461 1484.06 13.988 1491.87 9.28541C1499.77 4.53074 1510.78 2.73914 1523.07 2.71484L1523.07 1.71484L1523.07 0.714846C1510.65 0.73938 1499.2 2.53665 1490.84 7.57201C1482.39 12.6595 1477.2 20.9926 1477.25 33.75L1478.25 33.7461ZM1542.26 36.9199H1543.26V35.3086H1542.26H1541.26V36.9199H1542.26ZM1542.26 35.3086L1543.26 35.3223C1543.3 32.5087 1542.74 30.1954 1541.66 28.3188C1540.57 26.4391 1539 25.0656 1537.1 24.0717C1533.37 22.1092 1528.32 21.5891 1523.08 21.5157L1523.07 22.5156L1523.06 23.5155C1528.27 23.5886 1532.89 24.1183 1536.17 25.8423C1537.79 26.6917 1539.06 27.8207 1539.93 29.3192C1540.79 30.821 1541.29 32.7618 1541.26 35.2949L1542.26 35.3086ZM1523.07 22.5156L1523.06 21.5157C1517.8 21.5891 1512.74 22.1091 1509 24.0714C1507.1 25.0652 1505.52 26.4386 1504.43 28.3185C1503.35 30.1953 1502.79 32.5087 1502.83 35.3223L1503.83 35.3086L1504.83 35.2949C1504.8 32.7618 1505.3 30.8211 1506.17 29.3195C1507.03 27.8211 1508.3 26.6922 1509.92 25.8427C1513.21 24.1184 1517.85 23.5886 1523.08 23.5155L1523.07 22.5156ZM1503.83 35.3086H1502.83V36.9199H1503.83H1504.83V35.3086H1503.83ZM1503.83 36.9199L1502.83 36.9063C1502.79 39.7313 1503.35 42.0534 1504.43 43.9367C1505.52 45.8234 1507.1 47.2019 1508.99 48.1992C1512.74 50.1683 1517.8 50.6882 1523.06 50.7616L1523.07 49.7617L1523.08 48.7618C1517.85 48.6887 1513.21 48.1589 1509.93 46.4292C1508.31 45.5771 1507.03 44.444 1506.17 42.9387C1505.3 41.43 1504.8 39.4796 1504.83 36.9336L1503.83 36.9199ZM1523.07 49.7617L1523.08 50.7616C1528.32 50.6882 1533.37 50.1682 1537.1 48.1989C1539 47.2015 1540.57 45.823 1541.66 43.9364C1542.74 42.0532 1543.3 39.7313 1543.26 36.9063L1542.26 36.9199L1541.26 36.9336C1541.29 39.4796 1540.79 41.4302 1539.93 42.939C1539.06 44.4445 1537.79 45.5775 1536.17 46.4295C1532.89 48.1589 1528.27 48.6888 1523.06 48.7618L1523.07 49.7617ZM1639.53 38.0918L1638.76 38.7299L1640.53 40.8658V38.0918H1639.53ZM1639.53 3.32617V2.32617H1638.53V3.32617H1639.53ZM1665.16 3.32617H1666.16V2.32617H1665.16V3.32617ZM1665.16 68.9512V69.9512H1666.16V68.9512H1665.16ZM1636.35 68.9512L1635.6 69.6116L1635.9 69.9512H1636.35V68.9512ZM1601.1 28.8633L1601.85 28.2029L1600.1 26.2119V28.8633H1601.1ZM1601.1 68.9512V69.9512H1602.1V68.9512H1601.1ZM1575.51 68.9512H1574.51V69.9512H1575.51V68.9512ZM1575.51 3.32617V2.32617H1574.51V3.32617H1575.51ZM1610.72 3.32617L1611.49 2.68812L1611.19 2.32617H1610.72V3.32617ZM1639.53 38.0918H1640.53V3.32617H1639.53H1638.53V38.0918H1639.53ZM1639.53 3.32617V4.32617H1665.16V3.32617V2.32617H1639.53V3.32617ZM1665.16 3.32617H1664.16V68.9512H1665.16H1666.16V3.32617H1665.16ZM1665.16 68.9512V67.9512H1636.35V68.9512V69.9512H1665.16V68.9512ZM1636.35 68.9512L1637.1 68.2908L1601.85 28.2029L1601.1 28.8633L1600.35 29.5237L1635.6 69.6116L1636.35 68.9512ZM1601.1 28.8633H1600.1V68.9512H1601.1H1602.1V28.8633H1601.1ZM1601.1 68.9512V67.9512H1575.51V68.9512V69.9512H1601.1V68.9512ZM1575.51 68.9512H1576.51V3.32617H1575.51H1574.51V68.9512H1575.51ZM1575.51 3.32617V4.32617H1610.72V3.32617V2.32617H1575.51V3.32617ZM1610.72 3.32617L1609.95 3.96423L1638.76 38.7299L1639.53 38.0918L1640.3 37.4537L1611.49 2.68812L1610.72 3.32617ZM1718.92 28.7168L1718.97 27.7181L1718.97 27.7179L1718.92 28.7168ZM1762.91 47.3691L1761.91 47.3662V47.3691H1762.91ZM1718.38 70.5625L1718.38 71.5625H1718.38V70.5625ZM1673.85 47.3691V46.3691H1672.72L1672.86 47.4882L1673.85 47.3691ZM1700.66 47.3691L1701.52 46.8694L1701.24 46.3691H1700.66V47.3691ZM1717.85 43.5605L1717.8 44.5593L1717.8 44.5594L1717.85 43.5605ZM1673.85 24.957L1674.85 24.96V24.957H1673.85ZM1718.38 1.71484L1718.39 0.714844H1718.38V1.71484ZM1762.91 24.957V25.957H1764.04L1763.91 24.8388L1762.91 24.957ZM1736.11 24.957L1735.24 25.4496L1735.52 25.957H1736.11V24.957ZM1700.66 24.957H1699.66C1699.66 26.2465 1700.58 27.0738 1701.62 27.5873C1702.67 28.106 1704.11 28.4585 1705.77 28.7218C1709.11 29.2512 1713.74 29.4726 1718.87 29.7157L1718.92 28.7168L1718.97 27.7179C1713.79 27.4727 1709.29 27.2546 1706.08 26.7464C1704.47 26.491 1703.27 26.1751 1702.51 25.7951C1701.73 25.4098 1701.66 25.108 1701.66 24.957H1700.66ZM1718.92 28.7168L1718.87 29.7155C1728.06 30.181 1738.94 30.7292 1747.53 33.1817C1751.81 34.4068 1755.43 36.0824 1757.96 38.3831C1760.46 40.6531 1761.93 43.5536 1761.91 47.3662L1762.91 47.3691L1763.91 47.3721C1763.93 42.9571 1762.2 39.5283 1759.31 36.9033C1756.46 34.309 1752.5 32.5239 1748.08 31.2587C1739.23 28.7307 1728.09 28.1803 1718.97 27.7181L1718.92 28.7168ZM1762.91 47.3691H1761.91C1761.91 51.851 1760.64 55.4243 1758.41 58.2894C1756.17 61.1685 1752.92 63.3921 1748.9 65.0746C1740.84 68.4498 1729.87 69.5625 1718.38 69.5625V70.5625V71.5625C1729.94 71.5625 1741.24 70.4535 1749.68 66.9195C1753.91 65.1474 1757.48 62.7446 1759.99 59.5171C1762.51 56.2756 1763.91 52.2623 1763.91 47.3691H1762.91ZM1718.38 70.5625L1718.38 69.5625C1706.88 69.5381 1696.54 68.823 1688.79 65.6572C1684.93 64.0827 1681.75 61.9152 1679.39 58.9526C1677.03 55.9936 1675.44 52.1841 1674.84 47.2501L1673.85 47.3691L1672.86 47.4882C1673.49 52.7349 1675.2 56.9088 1677.82 60.1997C1680.45 63.4872 1683.93 65.8362 1688.03 67.5088C1696.18 70.8371 1706.88 71.5381 1718.38 71.5625L1718.38 70.5625ZM1673.85 47.3691V48.3691H1700.66V47.3691V46.3691H1673.85V47.3691ZM1700.66 47.3691L1699.79 47.8689C1701.42 50.6894 1704.1 52.4119 1707.32 53.4255C1710.52 54.4348 1714.34 54.7656 1718.38 54.7656V53.7656V52.7656C1714.42 52.7656 1710.84 52.4373 1707.92 51.5178C1705.01 50.6028 1702.83 49.127 1701.52 46.8694L1700.66 47.3691ZM1718.38 53.7656V54.7656C1722.4 54.7656 1726.93 54.4353 1730.5 53.4345C1732.28 52.9352 1733.89 52.2481 1735.08 51.2897C1736.3 50.3107 1737.11 49.011 1737.11 47.3691H1736.11H1735.11C1735.11 48.2663 1734.69 49.0357 1733.83 49.7322C1732.94 50.4492 1731.62 51.0438 1729.96 51.5089C1726.65 52.4368 1722.33 52.7656 1718.38 52.7656V53.7656ZM1736.11 47.3691H1737.11C1737.11 46.0817 1736.19 45.2513 1735.15 44.7331C1734.1 44.2092 1732.66 43.8501 1731 43.5805C1727.65 43.0384 1723.02 42.8048 1717.89 42.5617L1717.85 43.5605L1717.8 44.5594C1722.97 44.8045 1727.47 45.0348 1730.68 45.5548C1732.29 45.8161 1733.49 46.1376 1734.26 46.5216C1735.03 46.9113 1735.11 47.2161 1735.11 47.3691H1736.11ZM1717.85 43.5605L1717.9 42.5618C1708.71 42.0963 1697.82 41.5481 1689.24 39.1015C1684.95 37.8794 1681.33 36.2082 1678.8 33.914C1676.31 31.6504 1674.84 28.7593 1674.85 24.96L1673.85 24.957L1672.85 24.9541C1672.84 29.3579 1674.57 32.7779 1677.46 35.3956C1680.31 37.9826 1684.26 39.7629 1688.69 41.0249C1697.54 43.5466 1708.67 44.097 1717.8 44.5593L1717.85 43.5605ZM1673.85 24.957H1674.85C1674.85 20.4752 1676.13 16.8985 1678.36 14.0286C1680.6 11.1447 1683.84 8.91509 1687.86 7.22663C1695.92 3.83962 1706.89 2.71484 1718.38 2.71484V1.71484V0.714844C1706.83 0.714844 1695.53 1.83616 1687.09 5.38274C1682.85 7.16108 1679.29 9.57017 1676.78 12.802C1674.26 16.0478 1672.85 20.0639 1672.85 24.957H1673.85ZM1718.38 1.71484L1718.38 2.71482C1729.88 2.78811 1740.23 3.4786 1747.98 6.62699C1751.84 8.19244 1755.02 10.3521 1757.38 13.3174C1759.74 16.2793 1761.33 20.1036 1761.92 25.0752L1762.91 24.957L1763.91 24.8388C1763.28 19.5566 1761.57 15.3669 1758.94 12.0712C1756.32 8.77884 1752.83 6.4372 1748.73 4.77389C1740.58 1.46476 1729.88 0.788064 1718.39 0.714864L1718.38 1.71484ZM1762.91 24.957V23.957H1736.11V24.957V25.957H1762.91V24.957ZM1736.11 24.957L1736.98 24.4644C1735.35 21.5902 1732.67 19.8651 1729.45 18.8629C1726.24 17.8661 1722.42 17.5605 1718.38 17.5605V18.5605V19.5605C1722.35 19.5605 1725.93 19.8653 1728.85 20.7728C1731.76 21.6749 1733.93 23.1481 1735.24 25.4496L1736.11 24.957ZM1718.38 18.5605V17.5605C1714.38 17.5605 1709.84 17.8533 1706.27 18.8354C1704.49 19.3255 1702.87 20.0085 1701.68 20.9772C1700.46 21.969 1699.66 23.2879 1699.66 24.957H1700.66H1701.66C1701.66 24.0139 1702.08 23.2271 1702.94 22.5297C1703.83 21.8092 1705.15 21.2196 1706.8 20.7637C1710.11 19.8537 1714.43 19.5605 1718.38 19.5605V18.5605ZM1864.13 22.418L1865.04 21.9975L1864.14 20.0452L1863.23 21.9956L1864.13 22.418ZM1855.1 41.8027L1854.2 41.3803L1853.53 42.8027H1855.1V41.8027ZM1873.12 41.8027V42.8027H1874.68L1874.03 41.3822L1873.12 41.8027ZM1813.7 69.0488L1812.81 68.5761L1812.02 70.0488H1813.7V69.0488ZM1848.9 3.42383V2.42383H1848.3L1848.02 2.9511L1848.9 3.42383ZM1879.32 3.42383L1880.2 2.9511L1879.92 2.42383H1879.32V3.42383ZM1914.53 69.0488V70.0488H1916.2L1915.41 68.5761L1914.53 69.0488ZM1885.72 69.0488L1884.81 69.4674L1885.08 70.0488H1885.72V69.0488ZM1880.54 57.8184L1881.45 57.3998L1881.18 56.8184H1880.54V57.8184ZM1847.68 57.8184V56.8184H1847.04L1846.77 57.3998L1847.68 57.8184ZM1842.5 69.0488V70.0488H1843.14L1843.41 69.4674L1842.5 69.0488ZM1864.13 22.418L1863.23 21.9956L1854.2 41.3803L1855.1 41.8027L1856.01 42.2251L1865.04 22.8404L1864.13 22.418ZM1855.1 41.8027V42.8027H1873.12V41.8027V40.8027H1855.1V41.8027ZM1873.12 41.8027L1874.03 41.3822L1865.04 21.9975L1864.13 22.418L1863.23 22.8385L1872.21 42.2232L1873.12 41.8027ZM1813.7 69.0488L1814.58 69.5216L1849.78 3.89656L1848.9 3.42383L1848.02 2.9511L1812.81 68.5761L1813.7 69.0488ZM1848.9 3.42383V4.42383H1879.32V3.42383V2.42383H1848.9V3.42383ZM1879.32 3.42383L1878.44 3.89656L1913.64 69.5216L1914.53 69.0488L1915.41 68.5761L1880.2 2.9511L1879.32 3.42383ZM1914.53 69.0488V68.0488H1885.72V69.0488V70.0488H1914.53V69.0488ZM1885.72 69.0488L1886.62 68.6303L1881.45 57.3998L1880.54 57.8184L1879.63 58.2369L1884.81 69.4674L1885.72 69.0488ZM1880.54 57.8184V56.8184H1847.68V57.8184V58.8184H1880.54V57.8184ZM1847.68 57.8184L1846.77 57.3998L1841.6 68.6303L1842.5 69.0488L1843.41 69.4674L1848.59 58.2369L1847.68 57.8184ZM1842.5 69.0488V68.0488H1813.7V69.0488V70.0488H1842.5V69.0488ZM1916.53 3.375V2.375H1915.53V3.375H1916.53ZM1979.76 3.375V4.37506L1979.77 4.37494L1979.76 3.375ZM2004.56 28.1797L2003.56 28.1653L2003.56 28.1725V28.1797H2004.56ZM2000.61 41.6074L1999.77 41.0574L1999.77 41.0599L2000.61 41.6074ZM1990.26 50.5918L1989.84 49.6854L1988.7 50.2151L1989.47 51.2054L1990.26 50.5918ZM2004.56 69V70H2006.61L2005.35 68.3863L2004.56 69ZM1977.32 69L1976.53 69.6108L1976.83 70H1977.32V69ZM1964.96 52.9844L1965.76 52.3736L1965.46 51.9844H1964.96V52.9844ZM1942.11 52.9844V51.9844H1941.11V52.9844H1942.11ZM1942.11 69V70H1943.11V69H1942.11ZM1916.53 69H1915.53V70H1916.53V69ZM1942.11 22.5645V21.5645H1941.11V22.5645H1942.11ZM1942.11 33.7461H1941.11V34.7461H1942.11V33.7461ZM1916.53 3.375V4.375H1979.76V3.375V2.375H1916.53V3.375ZM1979.76 3.375L1979.77 4.37494C1992.74 4.23448 2003.75 15.1591 2003.56 28.1653L2004.56 28.1797L2005.56 28.1941C2005.77 14.0518 1993.83 2.22255 1979.75 2.37506L1979.76 3.375ZM2004.56 28.1797H2003.56C2003.56 32.9228 2002.3 37.2225 1999.77 41.0574L2000.61 41.6074L2001.44 42.1574C2004.19 37.9845 2005.56 33.2998 2005.56 28.1797H2004.56ZM2000.61 41.6074L1999.77 41.0599C1997.29 44.8612 1993.96 47.7632 1989.84 49.6854L1990.26 50.5918L1990.68 51.4982C1995.15 49.4165 1998.76 46.2638 2001.45 42.1549L2000.61 41.6074ZM1990.26 50.5918L1989.47 51.2054L2003.77 69.6137L2004.56 69L2005.35 68.3863L1991.05 49.9781L1990.26 50.5918ZM2004.56 69V68H1977.32V69V70H2004.56V69ZM1977.32 69L1978.11 68.3892L1965.76 52.3736L1964.96 52.9844L1964.17 53.5951L1976.53 69.6108L1977.32 69ZM1964.96 52.9844V51.9844H1942.11V52.9844V53.9844H1964.96V52.9844ZM1942.11 52.9844H1941.11V69H1942.11H1943.11V52.9844H1942.11ZM1942.11 69V68H1916.53V69V70H1942.11V69ZM1916.53 69H1917.53V3.375H1916.53H1915.53V69H1916.53ZM1973.31 22.5645V21.5645H1942.11V22.5645V23.5645H1973.31V22.5645ZM1942.11 22.5645H1941.11V33.7461H1942.11H1943.11V22.5645H1942.11ZM1942.11 33.7461V34.7461H1973.31V33.7461V32.7461H1942.11V33.7461ZM1973.31 33.7461V34.7461C1975.13 34.7461 1976.71 34.1095 1977.98 32.8419L1977.27 32.1348L1976.56 31.4277C1975.68 32.3084 1974.62 32.7461 1973.31 32.7461V33.7461ZM1977.27 32.1348L1977.98 32.8419C1979.29 31.5334 1979.93 29.9616 1979.93 28.1797H1978.93H1977.93C1977.93 29.4251 1977.5 30.49 1976.56 31.4277L1977.27 32.1348ZM1978.93 28.1797H1979.93C1979.93 24.5024 1976.99 21.5645 1973.31 21.5645V22.5645V23.5645C1975.89 23.5645 1977.93 25.607 1977.93 28.1797H1978.93ZM2073.95 41.7539V40.7539H2073.25L2073.01 41.4122L2073.95 41.7539ZM2100.17 41.7539L2101.17 41.8264L2101.25 40.7539H2100.17V41.7539ZM2055.49 70.5625L2055.49 71.5625H2055.49V70.5625ZM2010.67 38.5312L2011.67 38.5352V38.5312H2010.67ZM2010.67 33.7461L2011.67 33.7461L2011.67 33.7422L2010.67 33.7461ZM2055.49 1.71484L2055.49 0.714828L2055.49 0.714852L2055.49 1.71484ZM2100.17 30.5234V31.5234H2101.25L2101.17 30.4508L2100.17 30.5234ZM2073.95 30.5234L2073.01 30.8714L2073.25 31.5234H2073.95V30.5234ZM2055.49 22.5645V21.5644L2055.48 21.5646L2055.49 22.5645ZM2036.3 35.3574L2037.3 35.3574L2037.3 35.3438L2036.3 35.3574ZM2036.3 36.9688L2037.3 36.9824V36.9688H2036.3ZM2055.49 49.7617L2055.48 50.7617H2055.49V49.7617ZM2073.95 41.7539V42.7539H2100.17V41.7539V40.7539H2073.95V41.7539ZM2100.17 41.7539L2099.17 41.6814C2098.39 52.4211 2093.33 59.325 2085.61 63.5961C2077.81 67.9063 2067.24 69.5625 2055.49 69.5625V70.5625V71.5625C2067.37 71.5625 2078.34 69.8983 2086.57 65.3463C2094.88 60.7551 2100.34 53.2547 2101.17 41.8264L2100.17 41.7539ZM2055.49 70.5625L2055.49 69.5625C2043.25 69.5382 2032.24 67.7468 2024.33 62.9916C2016.51 58.2881 2011.62 50.6294 2011.67 38.5352L2010.67 38.5312L2009.67 38.5273C2009.62 51.2867 2014.84 59.6191 2023.3 64.7057C2031.67 69.7405 2043.12 71.538 2055.49 71.5625L2055.49 70.5625ZM2010.67 38.5312H2011.67V33.7461H2010.67H2009.67V38.5312H2010.67ZM2010.67 33.7461L2011.67 33.7422C2011.62 21.6734 2016.51 14.0264 2024.33 9.32237C2032.24 4.56672 2043.25 2.76342 2055.5 2.71484L2055.49 1.71484L2055.49 0.714852C2043.12 0.763922 2031.67 2.57391 2023.3 7.60829C2014.84 12.6943 2009.62 21.0141 2009.67 33.75L2010.67 33.7461ZM2055.49 1.71484L2055.49 2.71484C2067.24 2.73912 2077.81 4.40719 2085.61 8.7179C2093.33 12.9895 2098.39 19.8818 2099.17 30.5961L2100.17 30.5234L2101.17 30.4508C2100.34 19.046 2094.88 11.5583 2086.57 6.96764C2078.34 2.41605 2067.37 0.739392 2055.49 0.714846L2055.49 1.71484ZM2100.17 30.5234V29.5234H2073.95V30.5234V31.5234H2100.17V30.5234ZM2073.95 30.5234L2074.89 30.1754C2073.57 26.6171 2070.89 24.4482 2067.46 23.1885C2064.08 21.9426 2059.92 21.5645 2055.49 21.5645V22.5645V23.5645C2059.85 23.5645 2063.73 23.9431 2066.77 25.0654C2069.79 26.1738 2071.94 27.9845 2073.01 30.8714L2073.95 30.5234ZM2055.49 22.5645L2055.48 21.5646C2050.25 21.6379 2045.2 22.1328 2041.46 24.0827C2039.57 25.0707 2037.99 26.4419 2036.9 28.3275C2035.82 30.2092 2035.26 32.5347 2035.3 35.371L2036.3 35.3574L2037.3 35.3438C2037.27 32.7847 2037.77 30.8315 2038.64 29.3259C2039.5 27.824 2040.77 26.6989 2042.39 25.8558C2045.67 24.1436 2050.29 23.6375 2055.51 23.5644L2055.49 22.5645ZM2036.3 35.3574H2035.3V36.9688H2036.3H2037.3V35.3574H2036.3ZM2036.3 36.9688L2035.3 36.9551C2035.26 39.7687 2035.82 42.082 2036.9 43.9585C2037.99 45.8382 2039.57 47.2118 2041.46 48.2056C2045.2 50.1681 2050.24 50.6882 2055.48 50.7616L2055.49 49.7617L2055.51 48.7618C2050.29 48.6888 2045.67 48.159 2042.39 46.435C2040.77 45.5856 2039.5 44.4567 2038.64 42.9581C2037.77 41.4564 2037.27 39.5155 2037.3 36.9824L2036.3 36.9688ZM2055.49 49.7617V50.7617C2059.92 50.7617 2064.1 50.371 2067.49 49.1123C2070.91 47.8402 2073.59 45.6581 2074.89 42.0956L2073.95 41.7539L2073.01 41.4122C2071.96 44.295 2069.81 46.1168 2066.79 47.2373C2063.74 48.3712 2059.85 48.7617 2055.49 48.7617V49.7617ZM2171.85 46.5391H2172.85V45.5391H2171.85V46.5391ZM2133.42 46.5391V45.5391H2132.42V46.5391H2133.42ZM2133.42 68.9512V69.9512H2134.42V68.9512H2133.42ZM2107.84 68.9512H2106.84V69.9512H2107.84V68.9512ZM2107.84 3.32617V2.32617H2106.84V3.32617H2107.84ZM2133.42 3.32617H2134.42V2.32617H2133.42V3.32617ZM2133.42 25.7383H2132.42V26.7383H2133.42V25.7383ZM2171.85 25.7383V26.7383H2172.85V25.7383H2171.85ZM2171.85 3.32617V2.32617H2170.85V3.32617H2171.85ZM2197.48 3.32617H2198.48V2.32617H2197.48V3.32617ZM2197.48 68.9512V69.9512H2198.48V68.9512H2197.48ZM2171.85 68.9512H2170.85V69.9512H2171.85V68.9512ZM2171.85 46.5391V45.5391H2133.42V46.5391V47.5391H2171.85V46.5391ZM2133.42 46.5391H2132.42V68.9512H2133.42H2134.42V46.5391H2133.42ZM2133.42 68.9512V67.9512H2107.84V68.9512V69.9512H2133.42V68.9512ZM2107.84 68.9512H2108.84V3.32617H2107.84H2106.84V68.9512H2107.84ZM2107.84 3.32617V4.32617H2133.42V3.32617V2.32617H2107.84V3.32617ZM2133.42 3.32617H2132.42V25.7383H2133.42H2134.42V3.32617H2133.42ZM2133.42 25.7383V26.7383H2171.85V25.7383V24.7383H2133.42V25.7383ZM2171.85 25.7383H2172.85V3.32617H2171.85H2170.85V25.7383H2171.85ZM2171.85 3.32617V4.32617H2197.48V3.32617V2.32617H2171.85V3.32617ZM2197.48 3.32617H2196.48V68.9512H2197.48H2198.48V3.32617H2197.48ZM2197.48 68.9512V67.9512H2171.85V68.9512V69.9512H2197.48V68.9512ZM2171.85 68.9512H2172.85V46.5391H2171.85H2170.85V68.9512H2171.85ZM2212.43 3.32617V2.32617H2211.43V3.32617H2212.43ZM2238.01 3.32617H2239.01V2.32617H2238.01V3.32617ZM2238.01 68.9512V69.9512H2239.01V68.9512H2238.01ZM2212.43 68.9512H2211.43V69.9512H2212.43V68.9512ZM2212.43 3.32617V4.32617H2238.01V3.32617V2.32617H2212.43V3.32617ZM2238.01 3.32617H2237.01V68.9512H2238.01H2239.01V3.32617H2238.01ZM2238.01 68.9512V67.9512H2212.43V68.9512V69.9512H2238.01V68.9512ZM2212.43 68.9512H2213.43V3.32617H2212.43H2211.43V68.9512H2212.43ZM2268.77 3.42383L2269.69 3.02152L2269.43 2.42383H2268.77V3.42383ZM2288.79 48.9805L2287.88 49.3828L2288.79 51.4661L2289.71 49.3828L2288.79 48.9805ZM2308.81 3.42383V2.42383H2308.16L2307.9 3.02152L2308.81 3.42383ZM2337.62 3.42383L2338.51 3.88002L2339.26 2.42383H2337.62V3.42383ZM2303.98 69.0488V70.0488H2304.59L2304.87 69.505L2303.98 69.0488ZM2273.56 69.0488L2272.67 69.5045L2272.95 70.0488H2273.56V69.0488ZM2239.96 3.42383V2.42383H2238.33L2239.07 3.8795L2239.96 3.42383ZM2268.77 3.42383L2267.86 3.82614L2287.88 49.3828L2288.79 48.9805L2289.71 48.5782L2269.69 3.02152L2268.77 3.42383ZM2288.79 48.9805L2289.71 49.3828L2309.73 3.82614L2308.81 3.42383L2307.9 3.02152L2287.88 48.5782L2288.79 48.9805ZM2308.81 3.42383V4.42383H2337.62V3.42383V2.42383H2308.81V3.42383ZM2337.62 3.42383L2336.73 2.96763L2303.09 68.5926L2303.98 69.0488L2304.87 69.505L2338.51 3.88002L2337.62 3.42383ZM2303.98 69.0488V68.0488H2273.56V69.0488V70.0488H2303.98V69.0488ZM2273.56 69.0488L2274.45 68.5932L2240.85 2.96816L2239.96 3.42383L2239.07 3.8795L2272.67 69.5045L2273.56 69.0488ZM2239.96 3.42383V4.42383H2268.77V3.42383V2.42383H2239.96V3.42383ZM2339.57 69.0488H2338.57V70.0488H2339.57V69.0488ZM2339.57 3.42383V2.42383H2338.57V3.42383H2339.57ZM2416.38 3.42383H2417.38V2.42383H2416.38V3.42383ZM2416.38 20.2207V21.2207H2417.38V20.2207H2416.38ZM2365.16 20.2207V19.2207H2364.16V20.2207H2365.16ZM2365.16 28.6191H2364.16V29.6191H2365.16V28.6191ZM2416.38 28.6191H2417.38V27.6191H2416.38V28.6191ZM2416.38 43.8047V44.8047H2417.38V43.8047H2416.38ZM2365.16 43.8047V42.8047H2364.16V43.8047H2365.16ZM2365.16 52.2031H2364.16V53.2031H2365.16V52.2031ZM2416.38 52.2031H2417.38V51.2031H2416.38V52.2031ZM2416.38 69.0488V70.0488H2417.38V69.0488H2416.38ZM2339.57 69.0488H2340.57V3.42383H2339.57H2338.57V69.0488H2339.57ZM2339.57 3.42383V4.42383H2416.38V3.42383V2.42383H2339.57V3.42383ZM2416.38 3.42383H2415.38V20.2207H2416.38H2417.38V3.42383H2416.38ZM2416.38 20.2207V19.2207H2365.16V20.2207V21.2207H2416.38V20.2207ZM2365.16 20.2207H2364.16V28.6191H2365.16H2366.16V20.2207H2365.16ZM2365.16 28.6191V29.6191H2416.38V28.6191V27.6191H2365.16V28.6191ZM2416.38 28.6191H2415.38V43.8047H2416.38H2417.38V28.6191H2416.38ZM2416.38 43.8047V42.8047H2365.16V43.8047V44.8047H2416.38V43.8047ZM2365.16 43.8047H2364.16V52.2031H2365.16H2366.16V43.8047H2365.16ZM2365.16 52.2031V53.2031H2416.38V52.2031V51.2031H2365.16V52.2031ZM2416.38 52.2031H2415.38V69.0488H2416.38H2417.38V52.2031H2416.38ZM2416.38 69.0488V68.0488H2339.57V69.0488V70.0488H2416.38V69.0488ZM2497.63 3.42383L2498.41 2.7919L2498.11 2.42383H2497.63V3.42383ZM2516.82 26.959L2516.05 27.5909L2516.82 28.5402L2517.59 27.5919L2516.82 26.959ZM2536.06 3.42383V2.42383H2535.58L2535.28 2.79094L2536.06 3.42383ZM2566.43 3.42383L2567.19 4.07235L2568.6 2.42383H2566.43V3.42383ZM2529.61 46.6367L2528.85 45.9882L2528.61 46.2685V46.6367H2529.61ZM2529.61 69.0488V70.0488H2530.61V69.0488H2529.61ZM2504.03 69.0488H2503.03V70.0488H2504.03V69.0488ZM2504.03 46.6367H2505.03V46.2685L2504.79 45.9882L2504.03 46.6367ZM2467.21 3.42383V2.42383H2465.05L2466.45 4.07235L2467.21 3.42383ZM2497.63 3.42383L2496.86 4.05575L2516.05 27.5909L2516.82 26.959L2517.6 26.3271L2498.41 2.7919L2497.63 3.42383ZM2516.82 26.959L2517.59 27.5919L2536.83 4.05672L2536.06 3.42383L2535.28 2.79094L2516.05 26.3261L2516.82 26.959ZM2536.06 3.42383V4.42383H2566.43V3.42383V2.42383H2536.06V3.42383ZM2566.43 3.42383L2565.67 2.77531L2528.85 45.9882L2529.61 46.6367L2530.37 47.2852L2567.19 4.07235L2566.43 3.42383ZM2529.61 46.6367H2528.61V69.0488H2529.61H2530.61V46.6367H2529.61ZM2529.61 69.0488V68.0488H2504.03V69.0488V70.0488H2529.61V69.0488ZM2504.03 69.0488H2505.03V46.6367H2504.03H2503.03V69.0488H2504.03ZM2504.03 46.6367L2504.79 45.9882L2467.97 2.77531L2467.21 3.42383L2466.45 4.07235L2503.27 47.2852L2504.03 46.6367ZM2467.21 3.42383V4.42383H2497.63V3.42383V2.42383H2467.21V3.42383ZM2603.34 1.71484V0.714842L2603.34 0.714846L2603.34 1.71484ZM2648.12 38.5312L2647.12 38.5313L2647.12 38.5352L2648.12 38.5312ZM2603.34 70.5625L2603.34 71.5625L2603.35 71.5625L2603.34 70.5625ZM2558.52 38.5312L2559.52 38.5352V38.5312H2558.52ZM2558.52 33.7461L2559.52 33.7461L2559.52 33.7422L2558.52 33.7461ZM2622.53 36.9199L2621.53 36.9199L2621.53 36.9336L2622.53 36.9199ZM2622.53 35.3086L2621.53 35.2949V35.3086H2622.53ZM2603.34 22.5156L2603.36 21.5157L2603.34 21.5155L2603.33 21.5157L2603.34 22.5156ZM2584.11 35.3086L2585.11 35.3086L2585.11 35.2949L2584.11 35.3086ZM2584.11 36.9199L2585.11 36.9336V36.9199H2584.11ZM2603.34 49.7617L2603.33 50.7616L2603.34 50.7618L2603.36 50.7616L2603.34 49.7617ZM2603.34 1.71484V2.71484C2615.63 2.71484 2626.61 4.51846 2634.48 9.28415C2642.27 13.9987 2647.12 21.6708 2647.12 33.7461H2648.12H2649.12C2649.12 21.0167 2643.94 12.6732 2635.51 7.57327C2627.18 2.52451 2615.76 0.714844 2603.34 0.714844V1.71484ZM2648.12 33.7461H2647.12V38.5312H2648.12H2649.12V33.7461H2648.12ZM2648.12 38.5312L2647.12 38.5352C2647.17 50.6063 2642.3 58.2651 2634.5 62.9741C2626.61 67.7347 2615.61 69.5382 2603.34 69.5625L2603.34 70.5625L2603.35 71.5625C2615.74 71.538 2627.17 69.7282 2635.53 64.6866C2643.97 59.5933 2649.17 51.2608 2649.12 38.5273L2648.12 38.5312ZM2603.34 70.5625L2603.35 69.5625C2591.05 69.5382 2580.04 67.7347 2572.15 62.9739C2564.33 58.2649 2559.47 50.6063 2559.52 38.5352L2558.52 38.5312L2557.52 38.5273C2557.47 51.2609 2562.67 59.5935 2571.11 64.6867C2579.48 69.7282 2590.93 71.538 2603.34 71.5625L2603.34 70.5625ZM2558.52 38.5312H2559.52V33.7461H2558.52H2557.52V38.5312H2558.52ZM2558.52 33.7461L2559.52 33.7422C2559.47 21.6461 2564.34 13.988 2572.15 9.28541C2580.04 4.53074 2591.05 2.73914 2603.35 2.71484L2603.34 1.71484L2603.34 0.714846C2590.93 0.73938 2579.48 2.53665 2571.11 7.57201C2562.66 12.6595 2557.47 20.9926 2557.52 33.75L2558.52 33.7461ZM2622.53 36.9199H2623.53V35.3086H2622.53H2621.53V36.9199H2622.53ZM2622.53 35.3086L2623.53 35.3223C2623.57 32.5087 2623.02 30.1954 2621.93 28.3188C2620.85 26.4391 2619.27 25.0656 2617.38 24.0717C2613.64 22.1092 2608.6 21.5891 2603.36 21.5157L2603.34 22.5156L2603.33 23.5155C2608.54 23.5886 2613.16 24.1183 2616.45 25.8423C2618.06 26.6917 2619.33 27.8207 2620.2 29.3192C2621.07 30.821 2621.57 32.7618 2621.53 35.2949L2622.53 35.3086ZM2603.34 22.5156L2603.33 21.5157C2598.07 21.5891 2593.01 22.1091 2589.27 24.0714C2587.37 25.0652 2585.79 26.4386 2584.71 28.3185C2583.62 30.1953 2583.07 32.5087 2583.11 35.3223L2584.11 35.3086L2585.11 35.2949C2585.07 32.7618 2585.57 30.8211 2586.44 29.3195C2587.31 27.8211 2588.58 26.6922 2590.2 25.8427C2593.49 24.1184 2598.12 23.5886 2603.36 23.5155L2603.34 22.5156ZM2584.11 35.3086H2583.11V36.9199H2584.11H2585.11V35.3086H2584.11ZM2584.11 36.9199L2583.11 36.9063C2583.07 39.7313 2583.62 42.0534 2584.71 43.9367C2585.79 45.8234 2587.37 47.2019 2589.27 48.1992C2593.01 50.1683 2598.07 50.6882 2603.33 50.7616L2603.34 49.7617L2603.36 48.7618C2598.12 48.6887 2593.49 48.1589 2590.2 46.4292C2588.58 45.5771 2587.31 44.444 2586.44 42.9387C2585.57 41.43 2585.07 39.4796 2585.11 36.9336L2584.11 36.9199ZM2603.34 49.7617L2603.36 50.7616C2608.59 50.6882 2613.64 50.1682 2617.38 48.1989C2619.27 47.2015 2620.85 45.823 2621.93 43.9364C2623.02 42.0532 2623.57 39.7313 2623.53 36.9063L2622.53 36.9199L2621.53 36.9336C2621.57 39.4796 2621.07 41.4302 2620.2 42.939C2619.33 44.4445 2618.06 45.5775 2616.45 46.4295C2613.16 48.1589 2608.54 48.6888 2603.33 48.7618L2603.34 49.7617ZM2719.41 36.9688L2718.41 36.9688L2718.41 36.9823L2719.41 36.9688ZM2719.41 3.32617V2.32617H2718.41V3.32617H2719.41ZM2745.04 3.32617H2746.04V2.32617H2745.04V3.32617ZM2745.04 38.5801L2744.04 38.5801L2744.04 38.584L2745.04 38.5801ZM2700.22 70.5625L2700.22 71.5625L2700.22 71.5625L2700.22 70.5625ZM2655.39 38.5801L2656.39 38.584V38.5801H2655.39ZM2655.39 3.32617V2.32617H2654.39V3.32617H2655.39ZM2680.98 3.32617H2681.98V2.32617H2680.98V3.32617ZM2680.98 36.9688L2681.98 36.9778V36.9688H2680.98ZM2700.22 49.7617L2700.2 50.7616L2700.22 50.7618L2700.23 50.7616L2700.22 49.7617ZM2719.41 36.9688H2720.41V3.32617H2719.41H2718.41V36.9688H2719.41ZM2719.41 3.32617V4.32617H2745.04V3.32617V2.32617H2719.41V3.32617ZM2745.04 3.32617H2744.04V38.5801H2745.04H2746.04V3.32617H2745.04ZM2745.04 38.5801L2744.04 38.584C2744.09 50.6529 2739.21 58.2996 2731.38 62.9974C2723.47 67.7468 2712.46 69.5382 2700.22 69.5625L2700.22 70.5625L2700.22 71.5625C2712.59 71.538 2724.04 69.7405 2732.41 64.7121C2740.87 59.632 2746.09 51.3119 2746.04 38.5761L2745.04 38.5801ZM2700.22 70.5625L2700.22 69.5625C2687.98 69.5382 2676.97 67.7468 2669.06 62.9974C2661.23 58.2996 2656.35 50.6529 2656.39 38.584L2655.39 38.5801L2654.39 38.5761C2654.34 51.3119 2659.57 59.632 2668.03 64.7121C2676.4 69.7405 2687.85 71.538 2700.22 71.5625L2700.22 70.5625ZM2655.39 38.5801H2656.39V3.32617H2655.39H2654.39V38.5801H2655.39ZM2655.39 3.32617V4.32617H2680.98V3.32617V2.32617H2655.39V3.32617ZM2680.98 3.32617H2679.98V36.9688H2680.98H2681.98V3.32617H2680.98ZM2680.98 36.9688L2679.98 36.9597C2679.95 39.7951 2680.52 42.1193 2681.6 43.9999C2682.69 45.8844 2684.27 47.2554 2686.16 48.2435C2689.9 50.1935 2694.95 50.6883 2700.2 50.7616L2700.22 49.7617L2700.23 48.7618C2694.99 48.6887 2690.37 48.1825 2687.09 46.4703C2685.47 45.6274 2684.2 44.502 2683.33 42.9991C2682.46 41.4923 2681.96 39.538 2681.98 36.9778L2680.98 36.9688ZM2700.22 49.7617L2700.23 50.7616C2705.47 50.6883 2710.51 50.1934 2714.25 48.2435C2716.14 47.2555 2717.72 45.8843 2718.81 43.9987C2719.89 42.1169 2720.45 39.7915 2720.41 36.9552L2719.41 36.9688L2718.41 36.9823C2718.44 39.5415 2717.94 41.4946 2717.07 43.0003C2716.21 44.5022 2714.94 45.6273 2713.32 46.4703C2710.04 48.1826 2705.42 48.6887 2700.2 48.7618L2700.22 49.7617ZM2756.57 3.375V2.375H2755.57V3.375H2756.57ZM2819.8 3.375V4.37506L2819.81 4.37494L2819.8 3.375ZM2844.6 28.1797L2843.6 28.1653L2843.6 28.1725V28.1797H2844.6ZM2840.65 41.6074L2839.81 41.0574L2839.81 41.0599L2840.65 41.6074ZM2830.3 50.5918L2829.87 49.6854L2828.74 50.2151L2829.51 51.2054L2830.3 50.5918ZM2844.6 69V70H2846.65L2845.39 68.3863L2844.6 69ZM2817.36 69L2816.57 69.6108L2816.87 70H2817.36V69ZM2805 52.9844L2805.8 52.3736L2805.5 51.9844H2805V52.9844ZM2782.15 52.9844V51.9844H2781.15V52.9844H2782.15ZM2782.15 69V70H2783.15V69H2782.15ZM2756.57 69H2755.57V70H2756.57V69ZM2782.15 22.5645V21.5645H2781.15V22.5645H2782.15ZM2782.15 33.7461H2781.15V34.7461H2782.15V33.7461ZM2756.57 3.375V4.375H2819.8V3.375V2.375H2756.57V3.375ZM2819.8 3.375L2819.81 4.37494C2832.78 4.23448 2843.79 15.1591 2843.6 28.1653L2844.6 28.1797L2845.6 28.1941C2845.81 14.0518 2833.87 2.22255 2819.79 2.37506L2819.8 3.375ZM2844.6 28.1797H2843.6C2843.6 32.9228 2842.34 37.2225 2839.81 41.0574L2840.65 41.6074L2841.48 42.1574C2844.23 37.9845 2845.6 33.2998 2845.6 28.1797H2844.6ZM2840.65 41.6074L2839.81 41.0599C2837.32 44.8612 2834 47.7632 2829.87 49.6854L2830.3 50.5918L2830.72 51.4982C2835.19 49.4165 2838.8 46.2638 2841.49 42.1549L2840.65 41.6074ZM2830.3 50.5918L2829.51 51.2054L2843.81 69.6137L2844.6 69L2845.39 68.3863L2831.09 49.9781L2830.3 50.5918ZM2844.6 69V68H2817.36V69V70H2844.6V69ZM2817.36 69L2818.15 68.3892L2805.8 52.3736L2805 52.9844L2804.21 53.5951L2816.57 69.6108L2817.36 69ZM2805 52.9844V51.9844H2782.15V52.9844V53.9844H2805V52.9844ZM2782.15 52.9844H2781.15V69H2782.15H2783.15V52.9844H2782.15ZM2782.15 69V68H2756.57V69V70H2782.15V69ZM2756.57 69H2757.57V3.375H2756.57H2755.57V69H2756.57ZM2813.35 22.5645V21.5645H2782.15V22.5645V23.5645H2813.35V22.5645ZM2782.15 22.5645H2781.15V33.7461H2782.15H2783.15V22.5645H2782.15ZM2782.15 33.7461V34.7461H2813.35V33.7461V32.7461H2782.15V33.7461ZM2813.35 33.7461V34.7461C2815.17 34.7461 2816.75 34.1095 2818.02 32.8419L2817.31 32.1348L2816.6 31.4277C2815.72 32.3084 2814.66 32.7461 2813.35 32.7461V33.7461ZM2817.31 32.1348L2818.02 32.8419C2819.32 31.5334 2819.97 29.9616 2819.97 28.1797H2818.97H2817.97C2817.97 29.4251 2817.54 30.49 2816.6 31.4277L2817.31 32.1348ZM2818.97 28.1797H2819.97C2819.97 24.5024 2817.03 21.5645 2813.35 21.5645V22.5645V23.5645C2815.93 23.5645 2817.97 25.607 2817.97 28.1797H2818.97ZM2940.5 28.7168L2940.55 27.7181L2940.55 27.7179L2940.5 28.7168ZM2984.5 47.3691L2983.5 47.3662V47.3691H2984.5ZM2939.96 70.5625L2939.96 71.5625H2939.96V70.5625ZM2895.43 47.3691V46.3691H2894.31L2894.44 47.4882L2895.43 47.3691ZM2922.24 47.3691L2923.11 46.8694L2922.82 46.3691H2922.24V47.3691ZM2939.43 43.5605L2939.38 44.5593L2939.38 44.5594L2939.43 43.5605ZM2895.43 24.957L2896.43 24.96V24.957H2895.43ZM2939.96 1.71484L2939.97 0.714844H2939.96V1.71484ZM2984.5 24.957V25.957H2985.62L2985.49 24.8388L2984.5 24.957ZM2957.69 24.957L2956.82 25.4496L2957.11 25.957H2957.69V24.957ZM2922.24 24.957H2921.24C2921.24 26.2465 2922.16 27.0738 2923.2 27.5873C2924.25 28.106 2925.69 28.4585 2927.35 28.7218C2930.7 29.2512 2935.33 29.4726 2940.45 29.7157L2940.5 28.7168L2940.55 27.7179C2935.38 27.4727 2930.87 27.2546 2927.66 26.7464C2926.05 26.491 2924.86 26.1751 2924.09 25.7951C2923.31 25.4098 2923.24 25.108 2923.24 24.957H2922.24ZM2940.5 28.7168L2940.45 29.7155C2949.64 30.181 2960.53 30.7292 2969.11 33.1817C2973.4 34.4068 2977.01 36.0824 2979.54 38.3831C2982.04 40.6531 2983.51 43.5536 2983.5 47.3662L2984.5 47.3691L2985.5 47.3721C2985.51 42.9571 2983.78 39.5283 2980.89 36.9033C2978.04 34.309 2974.09 32.5239 2969.66 31.2587C2960.81 28.7307 2949.68 28.1803 2940.55 27.7181L2940.5 28.7168ZM2984.5 47.3691H2983.5C2983.5 51.851 2982.22 55.4243 2979.99 58.2894C2977.75 61.1685 2974.51 63.3921 2970.49 65.0746C2962.42 68.4498 2951.46 69.5625 2939.96 69.5625V70.5625V71.5625C2951.52 71.5625 2962.82 70.4535 2971.26 66.9195C2975.49 65.1474 2979.06 62.7446 2981.57 59.5171C2984.09 56.2756 2985.5 52.2623 2985.5 47.3691H2984.5ZM2939.96 70.5625L2939.97 69.5625C2928.47 69.5381 2918.12 68.823 2910.37 65.6572C2906.51 64.0827 2903.33 61.9152 2900.97 58.9526C2898.61 55.9936 2897.02 52.1841 2896.43 47.2501L2895.43 47.3691L2894.44 47.4882C2895.07 52.7349 2896.78 56.9088 2899.41 60.1997C2902.03 63.4872 2905.52 65.8362 2909.61 67.5088C2917.76 70.8371 2928.46 71.5381 2939.96 71.5625L2939.96 70.5625ZM2895.43 47.3691V48.3691H2922.24V47.3691V46.3691H2895.43V47.3691ZM2922.24 47.3691L2921.37 47.8689C2923 50.6894 2925.68 52.4119 2928.9 53.4255C2932.1 54.4348 2935.92 54.7656 2939.96 54.7656V53.7656V52.7656C2936 52.7656 2932.42 52.4373 2929.5 51.5178C2926.59 50.6028 2924.41 49.127 2923.11 46.8694L2922.24 47.3691ZM2939.96 53.7656V54.7656C2943.98 54.7656 2948.52 54.4353 2952.08 53.4345C2953.86 52.9352 2955.48 52.2481 2956.67 51.2897C2957.88 50.3107 2958.69 49.011 2958.69 47.3691H2957.69H2956.69C2956.69 48.2663 2956.28 49.0357 2955.41 49.7322C2954.52 50.4492 2953.2 51.0438 2951.54 51.5089C2948.24 52.4368 2943.91 52.7656 2939.96 52.7656V53.7656ZM2957.69 47.3691H2958.69C2958.69 46.0817 2957.77 45.2513 2956.73 44.7331C2955.69 44.2092 2954.25 43.8501 2952.58 43.5805C2949.24 43.0384 2944.61 42.8048 2939.48 42.5617L2939.43 43.5605L2939.38 44.5594C2944.55 44.8045 2949.05 45.0348 2952.26 45.5548C2953.88 45.8161 2955.07 46.1376 2955.84 46.5216C2956.62 46.9113 2956.69 47.2161 2956.69 47.3691H2957.69ZM2939.43 43.5605L2939.48 42.5618C2930.29 42.0963 2919.4 41.5481 2910.82 39.1015C2906.53 37.8794 2902.91 36.2082 2900.38 33.914C2897.89 31.6504 2896.42 28.7593 2896.43 24.96L2895.43 24.957L2894.43 24.9541C2894.42 29.3579 2896.15 32.7779 2899.04 35.3956C2901.89 37.9826 2905.84 39.7629 2910.27 41.0249C2919.12 43.5466 2930.25 44.097 2939.38 44.5593L2939.43 43.5605ZM2895.43 24.957H2896.43C2896.43 20.4752 2897.71 16.8985 2899.94 14.0286C2902.18 11.1447 2905.42 8.91509 2909.44 7.22663C2917.51 3.83962 2928.47 2.71484 2939.96 2.71484V1.71484V0.714844C2928.41 0.714844 2917.11 1.83616 2908.67 5.38274C2904.44 7.16108 2900.87 9.57017 2898.36 12.802C2895.84 16.0478 2894.43 20.0639 2894.43 24.957H2895.43ZM2939.96 1.71484L2939.96 2.71482C2951.46 2.78811 2961.81 3.4786 2969.56 6.62699C2973.42 8.19244 2976.6 10.3521 2978.96 13.3174C2981.32 16.2793 2982.91 20.1036 2983.5 25.0752L2984.5 24.957L2985.49 24.8388C2984.86 19.5566 2983.15 15.3669 2980.52 12.0712C2977.9 8.77884 2974.41 6.4372 2970.32 4.77389C2962.16 1.46476 2951.46 0.788064 2939.97 0.714864L2939.96 1.71484ZM2984.5 24.957V23.957H2957.69V24.957V25.957H2984.5V24.957ZM2957.69 24.957L2958.56 24.4644C2956.93 21.5902 2954.25 19.8651 2951.03 18.8629C2947.82 17.8661 2944 17.5605 2939.96 17.5605V18.5605V19.5605C2943.93 19.5605 2947.51 19.8653 2950.43 20.7728C2953.34 21.6749 2955.52 23.1481 2956.82 25.4496L2957.69 24.957ZM2939.96 18.5605V17.5605C2935.96 17.5605 2931.42 17.8533 2927.85 18.8354C2926.07 19.3255 2924.45 20.0085 2923.26 20.9772C2922.04 21.969 2921.24 23.2879 2921.24 24.957H2922.24H2923.24C2923.24 24.0139 2923.66 23.2271 2924.52 22.5297C2925.41 21.8092 2926.73 21.2196 2928.38 20.7637C2931.69 19.8537 2936.01 19.5605 2939.96 19.5605V18.5605ZM2991.33 69.0488H2990.33V70.0488H2991.33V69.0488ZM2991.33 3.42383V2.42383H2990.33V3.42383H2991.33ZM3068.14 3.42383H3069.14V2.42383H3068.14V3.42383ZM3068.14 20.2207V21.2207H3069.14V20.2207H3068.14ZM3016.92 20.2207V19.2207H3015.92V20.2207H3016.92ZM3016.92 28.6191H3015.92V29.6191H3016.92V28.6191ZM3068.14 28.6191H3069.14V27.6191H3068.14V28.6191ZM3068.14 43.8047V44.8047H3069.14V43.8047H3068.14ZM3016.92 43.8047V42.8047H3015.92V43.8047H3016.92ZM3016.92 52.2031H3015.92V53.2031H3016.92V52.2031ZM3068.14 52.2031H3069.14V51.2031H3068.14V52.2031ZM3068.14 69.0488V70.0488H3069.14V69.0488H3068.14ZM2991.33 69.0488H2992.33V3.42383H2991.33H2990.33V69.0488H2991.33ZM2991.33 3.42383V4.42383H3068.14V3.42383V2.42383H2991.33V3.42383ZM3068.14 3.42383H3067.14V20.2207H3068.14H3069.14V3.42383H3068.14ZM3068.14 20.2207V19.2207H3016.92V20.2207V21.2207H3068.14V20.2207ZM3016.92 20.2207H3015.92V28.6191H3016.92H3017.92V20.2207H3016.92ZM3016.92 28.6191V29.6191H3068.14V28.6191V27.6191H3016.92V28.6191ZM3068.14 28.6191H3067.14V43.8047H3068.14H3069.14V28.6191H3068.14ZM3068.14 43.8047V42.8047H3016.92V43.8047V44.8047H3068.14V43.8047ZM3016.92 43.8047H3015.92V52.2031H3016.92H3017.92V43.8047H3016.92ZM3016.92 52.2031V53.2031H3068.14V52.2031V51.2031H3016.92V52.2031ZM3068.14 52.2031H3067.14V69.0488H3068.14H3069.14V52.2031H3068.14ZM3068.14 69.0488V68.0488H2991.33V69.0488V70.0488H3068.14V69.0488ZM3081.76 3.32617V2.32617H3080.76V3.32617H3081.76ZM3107.35 3.32617H3108.35V2.32617H3107.35V3.32617ZM3107.35 48.1504H3106.35V49.1504H3107.35V48.1504ZM3158.57 48.1504H3159.57V47.1504H3158.57V48.1504ZM3158.57 68.9512V69.9512H3159.57V68.9512H3158.57ZM3081.76 68.9512H3080.76V69.9512H3081.76V68.9512ZM3081.76 3.32617V4.32617H3107.35V3.32617V2.32617H3081.76V3.32617ZM3107.35 3.32617H3106.35V48.1504H3107.35H3108.35V3.32617H3107.35ZM3107.35 48.1504V49.1504H3158.57V48.1504V47.1504H3107.35V48.1504ZM3158.57 48.1504H3157.57V68.9512H3158.57H3159.57V48.1504H3158.57ZM3158.57 68.9512V67.9512H3081.76V68.9512V69.9512H3158.57V68.9512ZM3081.76 68.9512H3082.76V3.32617H3081.76H3080.76V68.9512H3081.76ZM3167.31 69.0488H3166.31V70.0488H3167.31V69.0488ZM3167.31 3.42383V2.42383H3166.31V3.42383H3167.31ZM3247.34 3.42383H3248.34V2.42383H3247.34V3.42383ZM3247.34 24.2246V25.2246H3248.34V24.2246H3247.34ZM3192.89 24.2246V23.2246H3191.89V24.2246H3192.89ZM3192.89 32.2324H3191.89V33.2324H3192.89V32.2324ZM3240.94 32.2324H3241.94V31.2324H3240.94V32.2324ZM3240.94 51.4219V52.4219H3241.94V51.4219H3240.94ZM3192.89 51.4219V50.4219H3191.89V51.4219H3192.89ZM3192.89 69.0488V70.0488H3193.89V69.0488H3192.89ZM3167.31 69.0488H3168.31V3.42383H3167.31H3166.31V69.0488H3167.31ZM3167.31 3.42383V4.42383H3247.34V3.42383V2.42383H3167.31V3.42383ZM3247.34 3.42383H3246.34V24.2246H3247.34H3248.34V3.42383H3247.34ZM3247.34 24.2246V23.2246H3192.89V24.2246V25.2246H3247.34V24.2246ZM3192.89 24.2246H3191.89V32.2324H3192.89H3193.89V24.2246H3192.89ZM3192.89 32.2324V33.2324H3240.94V32.2324V31.2324H3192.89V32.2324ZM3240.94 32.2324H3239.94V51.4219H3240.94H3241.94V32.2324H3240.94ZM3240.94 51.4219V50.4219H3192.89V51.4219V52.4219H3240.94V51.4219ZM3192.89 51.4219H3191.89V69.0488H3192.89H3193.89V51.4219H3192.89ZM3192.89 69.0488V68.0488H3167.31V69.0488V70.0488H3192.89V69.0488Z" fill="#BEBEBE" mask="url(#path-1-outside-1_705_412)"/>
</svg>
